<?xml version="1.0" encoding="utf-8"?>
<!-- Generator: Adobe Illustrator 16.0.3, SVG Export Plug-In . SVG Version: 6.00 Build 0)  -->
<!DOCTYPE svg PUBLIC "-//W3C//DTD SVG 1.1//EN" "http://www.w3.org/Graphics/SVG/1.1/DTD/svg11.dtd">
<svg version="1.1" id="Capa_1" xmlns="http://www.w3.org/2000/svg" xmlns:xlink="http://www.w3.org/1999/xlink" x="0px" y="0px"
	 width="841.89px" height="651px" viewBox="0 0 841.89 651" enable-background="new 0 0 841.89 651" xml:space="preserve">
<g id="Background">
	<rect fill="#04072B" width="841.89" height="651"/>
</g>
<g id="Arte">
	<g id="Copyright">
		<text transform="matrix(1 0 0 1 340.7471 601.5908)" fill="#A8A8A8" font-family="'Ubuntu'" font-size="21">Bdps_ on Twitter</text>
	</g>
	<g id="Logotipo">
		<path fill="#F21525" d="M237.187,270.432l-6.921-3.964c-0.005-0.015-0.003-0.042-0.015-0.043l-11.55-6.662
			c0,0-24.662,14.496-24.883,15.379c0,0-34.045,23.514-34.049,24.522l-10.288-5.932c0,0,2.238-21.651,1.897-21.56
			c0,0,3.478-41.569,2.603-41.929l0.014-7.784l-11.966-6.898c0,0-0.021,0.029-0.054,0.076l-7.414-4.445l-6.956,11.601l6.519,3.909
			c-0.354,0.5-0.714,1.009-1.084,1.532c-11.938,16.883-31.577,44.851-31.944,46.646c0,0-21.5,32.621-21.212,32.788
			c0.289,0.167,13.139,7.575,13.139,7.575s32.096-51.332,32.507-50.709l14.053-20.371c0,0-2.839,50.305-3.711,51.15
			c0,0-2.352,25.77-2.93,25.437l10.973,6.327c0,0,62.586-45.487,63.242-43.955c0,0-36.819,75.541-38.33,75.825l13.284,7.658
			c0,0,30.129-60.781,42.729-87.655l5.624,3.221L237.187,270.432z"/>
		<polygon fill="#F21525" points="248.625,299.031 238.519,293.543 189.291,384.198 130.894,352.406 125.395,362.505 
			193.854,399.777 195.409,396.922 195.453,396.946 		"/>
	</g>
	<g id="Letras">
		<path fill="#EF7F0F" d="M299.463,292.677c0,0,22.666,45,22.333,46.167c0,0,10.834,23.5,10.167,23.5h12.667
			c0,0,31.5-70.667,32.833-69.667c0,0,5.833,83.833,4.667,84.833h15.333"/>
		<path fill="#F21525" d="M299.463,293c0,0,22.666,45,22.333,46.167c0,0,10.834,23.5,10.167,23.5h12.667
			c0,0,31.5-70.667,32.833-69.667c0,0,5.833,83.833,4.667,84.833h15.333c0,0-7-111.333-8.333-110.833l-13.333-0.001
			c0,0-14.125,24.876-13.875,25.751c0,0-17.75,37.375-17.25,38.25h-11.875c0,0-8.875-19.875-9.125-19.625
			c0,0-17.75-37.75-18.688-37.625l-3.875-6.75h-13.813c0,0-6.666,69.333-5.833,71.833c0,0-2.333,39-2,39s15.167,0,15.167,0
			s2.167-60.5,2.833-60.167"/>
		<path fill="#F7930F" d="M287.296,266.999c0,0-6.666,69.333-5.833,71.833c0,0-2.333,39-2,39s15.167,0,15.167,0
			s2.167-60.5,2.833-60.167"/>
		<path fill="#F21525" d="M457.039,292.667c-22.133,0-40.076,19.774-40.076,44.166c0,24.394,17.943,44.167,40.076,44.167
			s40.074-19.773,40.074-44.167C497.113,312.44,479.171,292.667,457.039,292.667z M457.039,366.333
			c-11.199,0-27.742-10.304-27.742-29.5c0-13.864,13.877-28.5,27.742-28.5c13.863,0,27.59,14.636,27.59,28.5
			S470.902,366.333,457.039,366.333z"/>
		<path fill="#F21525" d="M548.039,292.667c-22.133,0-40.076,19.774-40.076,44.166c0,24.394,17.943,44.167,40.076,44.167
			s40.074-19.773,40.074-44.167C588.113,312.441,570.171,292.667,548.039,292.667z M548.039,366.334
			c-11.199,0-27.742-10.303-27.742-29.5c0-13.864,13.877-28.5,27.742-28.5c13.863,0,27.59,14.636,27.59,28.5
			C575.628,350.698,561.902,366.334,548.039,366.334z"/>
		<path fill="#F21525" d="M682.517,332.439c0,0,0-21.33-17.5-33.5c0,0-16.5-12.67-55.5-2v110.33h14.828v-32.83
			c0,0,23.342,14.67,45.672-3.33C670.017,371.109,685.017,357.109,682.517,332.439z M662.675,357.38c-17.129,19.24-38,2.87-38,2.87
			V308c29.74-7,38,9,38,9C672.916,337,662.675,357.38,662.675,357.38z"/>
		<path fill="#F21525" d="M752.796,296.526l-2.5,12.25c0,0-40-13-35,11c0,0,4,6.5,12.75,8.75c0,0,14.16,6.18,18.973,9.668
			c6.637,4.808,17.941,16.963,5.777,33c-3.746,4.938-6.148,6.968-12.777,8.5c-7.982,1.846-21.416,2.164-41.723-4.668l2.918-12.666
			c0,0,12.332,6.166,25.582,4.916c0,0,16.5,0.25,15.334-11.582c0,0,1-5.168-10.5-10.5c0,0-24-9.834-26.25-13.75
			c0,0-12.834-12.792-0.084-30.167C705.296,301.276,718.046,286.026,752.796,296.526z"/>
	</g>
</g>
</svg>
