<?xml version="1.0" standalone="no"?>
<!DOCTYPE svg PUBLIC "-//W3C//DTD SVG 1.1//EN" "http://www.w3.org/Graphics/SVG/1.1/DTD/svg11.dtd" >
<svg xmlns="http://www.w3.org/2000/svg" xmlns:xlink="http://www.w3.org/1999/xlink" version="1.1">
<metadata></metadata>
<defs>
<font id="caecilia_lightregular" horiz-adv-x="1138" >
<font-face units-per-em="2048" ascent="1638" descent="-410" />
<missing-glyph horiz-adv-x="569" />
<glyph unicode="&#xd;" horiz-adv-x="0" />
<glyph unicode=" "  horiz-adv-x="569" />
<glyph unicode="&#x09;" horiz-adv-x="569" />
<glyph unicode="&#xa0;" horiz-adv-x="569" />
<glyph unicode="!" horiz-adv-x="647" d="M397 1574l-16 -1082h-99l-7 1082h122zM418 76q0 -50 -25.5 -76t-71.5 -26q-43 0 -68.5 26.5t-25.5 72.5q0 43 28 71t71 28q41 0 66.5 -26t25.5 -70z" />
<glyph unicode="&#x22;" horiz-adv-x="682" d="M438 1431h110l-14 -501h-81zM134 1431h110l-15 -501h-81z" />
<glyph unicode="#" horiz-adv-x="1139" d="M244 439h-236v99h254l61 343h-237v98h254l80 452h107l-80 -452h280l80 452h108l-80 -452h236v-98h-254l-60 -343h236v-99h-254l-78 -439h-107l78 439h-281l-78 -439h-106zM649 538l61 343h-280l-61 -343h280z" />
<glyph unicode="$" d="M628 1714l-1 -264q26 1 37 1q66 0 153 -14q87 -15 162 -41l-1 -261h-100v180q-47 17 -118 28q-71 12 -137 13l-7 -581q256 -51 348 -146.5t92 -234.5q0 -89 -39 -173t-103.5 -134t-137.5 -72.5t-169 -31.5l-1 -279h-87l1 273q-172 6 -279 22q-73 11 -147 35v287h109v-202 q86 -22 154 -30q69 -8 163 -9l11 596q-187 46 -270 90q-84 45 -127 121t-43 174q0 97 39.5 171.5t101 122t133.5 69t172 26.5l1 264h90zM537 1351q-113 -6 -187 -43.5t-109 -101t-35 -137.5q0 -99 63.5 -164.5t261.5 -108.5zM607 89q158 6 246.5 89.5t88.5 199.5 q0 74 -34 130.5t-97 86.5q-86 41 -194 63z" />
<glyph unicode="%" horiz-adv-x="1745" d="M1375 1486l-947 -1608l-81 52l952 1608zM734 1131q0 -151 -89.5 -243t-225.5 -92q-133 0 -219.5 88.5t-86.5 236.5q0 145 90 237t228 92q130 0 216.5 -89t86.5 -230zM631 1129q0 62 -25.5 119t-73.5 87t-104 30q-91 0 -153 -65.5t-62 -177.5q0 -106 60.5 -171.5 t146.5 -65.5q89 0 150 66.5t61 177.5zM1635 313q0 -149 -89.5 -243t-222.5 -94q-139 0 -224.5 88.5t-85.5 234.5q0 147 90 239t225 92q90 0 161.5 -43t108.5 -118t37 -156zM1530 303q0 115 -59 179t-147 64q-87 0 -150 -67t-63 -176q0 -106 61 -171t151 -65q88 0 147.5 64 t59.5 172z" />
<glyph unicode="&#x26;" horiz-adv-x="1669" d="M1520 843v-91h-181q-12 -154 -48 -271t-96 -206l83 -80q53 -49 92 -76q26 -18 52 -26t65 -8q17 0 43 2v-89q-44 -5 -75 -5q-52 0 -90 15t-86 53l-143 128q-77 -79 -133 -114q-73 -48 -155 -70.5t-191 -22.5q-145 0 -245.5 48.5t-159.5 143.5t-59 202q0 65 21.5 125 t59.5 107t100 96q39 31 134 96q-115 108 -159 189q-45 82 -45 162q0 84 42.5 156t123 111.5t176.5 39.5q139 0 224.5 -80.5t85.5 -200.5q0 -70 -32 -131.5t-96 -120.5q-42 -39 -167 -125l98 -103l90 -90q79 -78 273 -265q52 75 84 184q32 110 32 226h-176v91h458zM597 862 q110 75 159.5 118.5t73.5 90t24 108.5q0 84 -56.5 137.5t-152.5 53.5q-106 0 -170 -60.5t-64 -149.5q0 -61 31 -117t155 -181zM571 740q-119 -84 -162 -123q-44 -40 -74.5 -101t-30.5 -127q0 -109 76 -193q105 -118 301 -118q116 0 209 44t173 133q-138 133 -208 204 q-213 213 -284 281z" />
<glyph unicode="'" horiz-adv-x="569" d="M229 1431h110l-15 -501h-81z" />
<glyph unicode="(" horiz-adv-x="645" d="M611 1552q-104 -154 -161 -281q-71 -158 -109 -345t-38 -393q0 -163 24 -305q25 -142 65 -264q40 -123 94 -226t150 -236l-78 -56q-87 95 -170 259q-107 213 -154 425q-48 212 -48 421q0 291 94 572q94 282 250 479z" />
<glyph unicode=")" horiz-adv-x="645" d="M34 1552l81 50q156 -197 250 -478q94 -282 94 -573q0 -209 -47 -421q-48 -212 -156 -425q-83 -164 -170 -259l-77 56q96 133 149 236q54 103 94 225q40 123 64 265q25 142 25 305q0 206 -37 393q-38 187 -109 345q-57 127 -161 281z" />
<glyph unicode="*" horiz-adv-x="684" d="M293 1585h99l-17 -278l224 135l42 -69l-242 -112l242 -115l-42 -67l-224 125l16 -267h-98l19 273l-227 -124l-41 71l240 104l-240 105l41 69l227 -128z" />
<glyph unicode="+" horiz-adv-x="1214" d="M552 0v445h-454v99h454v444h110v-444h454v-99h-454v-445h-110z" />
<glyph unicode="," horiz-adv-x="569" d="M182 -335l-51 51q54 60 78 113q17 37 17 78q0 32 -9.5 53t-39.5 54q-21 23 -28.5 38t-7.5 33q0 33 25.5 57.5t62.5 24.5q47 0 82 -41t35 -120q0 -169 -164 -341z" />
<glyph unicode="-" horiz-adv-x="796" d="M646 591v-105h-496v105h496z" />
<glyph unicode="." horiz-adv-x="569" d="M380 77q0 -52 -26 -78.5t-70 -26.5t-69 26t-25 75q0 45 26.5 72t68.5 27q44 0 69.5 -25.5t25.5 -69.5z" />
<glyph unicode="/" horiz-adv-x="796" d="M746 1505l-719 -1815l-93 37l720 1813z" />
<glyph unicode="0" d="M1048 766q0 -406 -150 -610q-131 -179 -340 -179q-133 0 -229.5 68.5t-152.5 196.5q-81 184 -81 459q0 270 91 465q68 145 174.5 212.5t237.5 67.5q142 0 245.5 -89t153.5 -252q51 -163 51 -339zM934 764q-1 148 -41 289t-120.5 217t-181.5 76q-73 0 -139 -35 t-116.5 -103t-87.5 -204q-37 -137 -37 -295q0 -344 121 -509q90 -123 229 -123q76 0 140 37t114 112q51 75 85 211q35 137 34 284v43z" />
<glyph unicode="1" d="M703 1431l-8 -1341h306v-90h-708v90h292l10 1219l-379 -244l-54 83l454 283h87z" />
<glyph unicode="2" d="M1001 99v-99h-872v84q470 446 615 675q103 162 103 301q0 130 -81 210.5t-210 80.5q-128 0 -215 -80.5t-101 -221.5h-111q17 179 137.5 289.5t298.5 110.5q180 0 288 -106t108 -275q0 -162 -110 -337q-149 -237 -578 -632h728z" />
<glyph unicode="3" d="M240 1087h-102q2 152 115 255.5t302 103.5q176 0 274 -93.5t98 -244.5q0 -133 -82 -232t-218 -127q105 -14 172 -50q89 -46 138 -126.5t49 -184.5q0 -113 -61.5 -212t-175 -152.5t-273.5 -53.5q-113 0 -203 22q-64 16 -130 52l5 111q144 -87 331 -87q189 0 290.5 91.5 t101.5 222.5q0 127 -99 210t-318 83q-30 0 -89 -3v98q220 0 334 96t114 229q0 117 -71.5 186t-203.5 69q-96 0 -163 -38.5t-101 -102.5q-24 -45 -34 -122z" />
<glyph unicode="4" d="M1087 537v-93h-285v-354h176v-90h-458v90h176v356h-638v83l645 902h99v-894h285zM696 537l1 737l-526 -737h525z" />
<glyph unicode="5" d="M910 1431v-97h-602l-7 -473q183 -14 261 -28q139 -26 224 -77q85 -52 133 -136.5t48 -194.5q0 -122 -64 -228.5t-184.5 -163.5t-270.5 -57q-78 0 -160 15t-132 36v105q152 -55 289 -55q193 0 300 97t107 239q0 174 -147.5 261t-510.5 92l10 665h706z" />
<glyph unicode="6" d="M1014 1422l-15 -95q-108 20 -184 20q-185 0 -316 -86.5t-191.5 -249.5t-62.5 -341q73 95 173 139t208 44q158 0 265 -88q135 -111 135 -323q0 -215 -140 -350q-114 -111 -292 -111q-198 0 -315 140q-147 175 -147 494q0 235 59 399q46 127 131 223.5t182 143.5 q131 64 307 64q115 0 203 -23zM248 558q-1 -104 38.5 -226.5t122 -189t191.5 -66.5q134 0 226 98.5t92 255.5q0 152 -84.5 238.5t-226.5 86.5q-105 0 -204.5 -56.5t-154.5 -140.5z" />
<glyph unicode="7" d="M992 1431l1 -74l-298 -625l-146 -289q-106 -212 -144 -280t-99 -163h-134q50 65 145 228q115 200 273 529l277 576h-723l-1 98h849z" />
<glyph unicode="8" d="M669 746q197 -90 271.5 -185.5t74.5 -218.5q0 -102 -58 -192.5t-161 -135t-240 -44.5q-208 0 -321.5 101.5t-113.5 252.5q0 118 76 215.5t273 196.5q-94 43 -163.5 97.5t-103 121.5t-33.5 151q0 146 108 244.5t305 98.5q185 0 285.5 -91t100.5 -228q0 -74 -30.5 -140 t-89.5 -118q-59 -53 -180 -126zM574 796q119 67 164 103q65 52 94.5 104t29.5 118q0 103 -74.5 168.5t-215.5 65.5q-138 0 -215.5 -69.5t-77.5 -173.5q0 -53 17.5 -93.5t59 -82t90.5 -70.5zM567 690q-203 -109 -267 -187t-64 -172q0 -113 85.5 -186t248.5 -73 q118 0 194.5 43t108.5 103.5t32 124.5q0 84 -48.5 146.5t-229.5 164.5q-42 24 -60 36z" />
<glyph unicode="9" d="M136 5l17 97q97 -22 187 -22q125 0 211 33t148 89.5t101.5 123.5t68.5 173t34 250q-28 -39 -91 -85t-135 -72t-151 -26q-152 0 -261 94q-139 119 -139 334q0 205 120.5 328t320.5 123q190 0 319.5 -155t129.5 -487q0 -217 -64 -392.5t-176 -277.5q-83 -76 -190 -114.5 t-259 -38.5q-105 0 -191 25zM900 872q1 20 1 30q0 91 -41 207q-42 117 -121.5 177t-186.5 60q-134 0 -223 -94.5t-89 -250.5q0 -97 36.5 -174t106.5 -117.5t157 -40.5q99 0 196 51t164 152z" />
<glyph unicode=":" horiz-adv-x="569" d="M389 919q0 -51 -26.5 -78.5t-71.5 -27.5q-41 0 -67.5 27t-26.5 71q0 47 28.5 76t71.5 29q40 0 66 -26.5t26 -70.5zM378 80q0 -55 -25.5 -82t-72.5 -27q-41 0 -68 27t-27 70q0 48 26.5 75.5t70.5 27.5q43 0 69.5 -25.5t26.5 -65.5z" />
<glyph unicode=";" horiz-adv-x="569" d="M381 925q0 -52 -26.5 -80.5t-70.5 -28.5q-43 0 -70 27.5t-27 72.5t28 74t71 29q42 0 68.5 -26.5t26.5 -67.5zM212 -335l-51 51q54 60 78 113q17 37 17 78q0 32 -9.5 53t-39.5 54q-21 23 -28.5 38t-7.5 33q0 33 25.5 57.5t62.5 24.5q47 0 82 -41t35 -120q0 -169 -164 -341 z" />
<glyph unicode="&#x3c;" horiz-adv-x="1214" d="M98 437v110l1017 409v-110l-890 -354l890 -352v-110z" />
<glyph unicode="=" horiz-adv-x="1214" d="M98 631v98h1018v-98h-1018zM98 257v98h1018v-98h-1018z" />
<glyph unicode="&#x3e;" horiz-adv-x="1214" d="M1115 437l-1017 -407v110l890 352l-890 354v110l1017 -409v-110z" />
<glyph unicode="?" horiz-adv-x="1024" d="M470 532l-79 -72q-96 84 -96 183q0 45 21 88.5t67 88.5q27 27 111 89q85 63 104 80q48 42 78.5 83.5t42.5 77.5t12 82q0 112 -77.5 186t-205.5 74q-87 0 -196 -31l-15 95q94 37 215 37q116 0 208 -43t141.5 -126t49.5 -175q0 -76 -29.5 -141t-75.5 -116 q-47 -51 -143 -124q-96 -74 -132 -107q-36 -34 -51.5 -62t-15.5 -53t13.5 -50t52.5 -64zM515 74q0 -50 -26.5 -77.5t-70.5 -27.5q-43 0 -70 26.5t-27 70.5q0 46 29 75.5t72 29.5q40 0 66.5 -27.5t26.5 -69.5z" />
<glyph unicode="@" horiz-adv-x="1631" d="M1146 1097h104l-118 -389q-47 -154 -47 -213q0 -40 26 -65t72 -25q64 0 139.5 54.5t126.5 169t51 237.5q0 145 -74 269t-216.5 192t-322.5 68q-212 0 -389 -94.5t-272 -263t-95 -350.5q0 -152 59 -272t146.5 -200t188.5 -122q148 -63 332 -63q158 0 293 45 q135 46 287 151l41 -53q-159 -114 -305 -164t-320 -50q-178 0 -319 52t-242.5 146t-159.5 210q-74 149 -74 322q0 204 105 387.5t301.5 287t424.5 103.5q198 0 357.5 -78t242.5 -218.5t83 -305.5q0 -102 -30 -194t-76 -156t-96.5 -103t-105.5 -59t-107 -20q-70 0 -112.5 40 t-42.5 101q0 28 13 75q-34 -67 -60 -99q-46 -55 -106.5 -86t-133.5 -31q-119 0 -196 82t-77 224q0 123 60 242.5t151.5 181.5t193.5 62t168.5 -52.5t81.5 -141.5zM1046 853q0 95 -50.5 148t-127.5 53q-42 0 -81 -16.5t-76 -50t-70.5 -88.5t-56 -125.5t-22.5 -138.5 q0 -112 51.5 -171t129.5 -59q42 0 84 19t82 63.5t74 115.5t48.5 139.5t14.5 110.5z" />
<glyph unicode="A" horiz-adv-x="1479" d="M821 1431l489 -1341h150v-90h-449v90h176l-182 504h-536l-200 -504h189v-90h-442v90h136l553 1341h116zM507 688h464l-219 612z" />
<glyph unicode="B" horiz-adv-x="1252" d="M84 1431h456q163 0 235 -20q107 -31 174 -112t67 -209q0 -104 -43.5 -178.5t-112.5 -116.5q-43 -26 -113 -41q165 -4 266.5 -105.5t101.5 -254.5q0 -90 -37.5 -170.5t-111 -134t-172.5 -74.5q-72 -15 -194 -15h-507l1 90h174l9 1251h-194zM388 785h107q113 0 175 13 q62 14 113.5 49.5t82.5 94.5t31 135q0 82 -35.5 144.5t-106.5 91t-199 28.5h-164zM383 90h141q161 0 229 13t122 48t88 97.5t34 142.5q0 137 -96 219.5t-313 82.5h-201z" />
<glyph unicode="C" horiz-adv-x="1403" d="M1286 1099h-105v213l-112 23q-30 6 -71 10q-58 6 -111 6q-152 0 -270.5 -45.5t-194.5 -122.5t-118 -176q-58 -134 -58 -296q0 -155 49 -275.5t130.5 -196.5t190 -116.5t269.5 -40.5q121 0 274 33l8 217h107l-9 -295q-177 -54 -391 -54q-176 0 -308 44 q-133 45 -226.5 132.5t-144.5 202.5q-70 157 -70 350q0 315 199.5 525.5t559.5 210.5q215 0 408 -67z" />
<glyph unicode="D" horiz-adv-x="1555" d="M87 1431h640q92 0 197 -15t202 -66.5t169.5 -137.5t112.5 -207q41 -122 41 -267q0 -205 -81 -364t-198 -243t-255 -113q-88 -18 -271 -18h-549l1 90h171l9 1251h-190zM382 90h243q186 0 292 28q107 28 203.5 108.5t152 210.5t55.5 293q0 152 -49 275t-139 202t-216 106 q-126 28 -330 28h-203z" />
<glyph unicode="E" horiz-adv-x="1176" d="M1030 1145h-96l1 196h-543l-4 -569h494l-1 -95h-493l-4 -587h568l14 214h97l-13 -304h-944l1 90h162l8 1251h-177v90h932z" />
<glyph unicode="F" d="M1023 1138h-93l-7 202h-530l-4 -588h543l-1 -94h-543l-4 -568h193v-90h-474v90h166l9 1250h-185l1 88h931z" />
<glyph unicode="G" horiz-adv-x="1479" d="M1292 1108h-101l-4 196q-135 46 -297 46q-213 0 -351.5 -70t-217.5 -218t-79 -344q0 -192 75.5 -341t220 -222t332.5 -73q144 0 281 35l4 390h-181v92h457v-92h-168l-4 -466q-96 -28 -159 -37q-132 -18 -258 -18q-231 0 -394.5 92.5t-245 254t-81.5 377.5 q0 338 200.5 538.5t553.5 200.5q118 0 227.5 -18.5t185.5 -50.5z" />
<glyph unicode="H" horiz-adv-x="1593" d="M386 668l-4 -578h180l-1 -90h-461v90h167l9 1251h-176v90h462l-1 -90h-170l-4 -583h819l4 583h-180v90h460v-90h-165l-9 -1251h174v-90h-460v90h171l4 578h-819z" />
<glyph unicode="I" horiz-adv-x="684" d="M576 1431l-1 -90h-170l-9 -1251h180l-1 -90h-459l1 90h164l8 1251h-180l1 90h466z" />
<glyph unicode="J" horiz-adv-x="645" d="M574 1431v-90h-165l-5 -793q-2 -279 -39 -429q-38 -150 -141 -272.5t-295 -207.5l-33 89q71 31 152 92t137.5 156.5t78.5 227.5q23 132 25 375l5 762h-180v90h460z" />
<glyph unicode="K" horiz-adv-x="1403" d="M1331 1431l-1 -90h-134l-695 -599l696 -652h139v-90h-467l1 90h177l-667 618l-4 -618h184v-90h-457l1 90h159l8 1251h-175l1 90h463v-90h-175l-5 -580l679 580h-180v90h452z" />
<glyph unicode="L" d="M564 1431l-1 -90h-168l-9 -1251h564l12 218h98l-11 -308h-948l1 90h169l9 1251h-179l1 90h462z" />
<glyph unicode="M" horiz-adv-x="1858" d="M1765 1431v-90h-187l7 -1251h182v-90h-460l2 90h166l1 1152l-502 -1242h-103l-494 1220l-17 -1130h182l-2 -90h-462v90h175l25 1251h-200v90h331l518 -1292l515 1292h323z" />
<glyph unicode="N" horiz-adv-x="1631" d="M1568 1431l-1 -90h-164l-9 -1341h-109l-914 1254l-9 -1164h183v-90h-463l1 90h170l9 1251h-199l1 90h309l914 -1255l7 1165h-193v90h467z" />
<glyph unicode="O" horiz-adv-x="1552" d="M1437 773q0 -217 -42 -356t-124 -239t-179 -151q-132 -69 -312 -69q-295 0 -469 187q-195 210 -195 562q0 355 190.5 557t486.5 202q136 0 237 -38.5t176.5 -105t128.5 -157t77 -201.5q25 -112 25 -191zM1316 754q-2 136 -51 268q-31 86 -85.5 163.5t-153 128.5 t-238.5 51q-178 0 -301.5 -86t-187 -233.5t-63.5 -330.5q0 -263 126 -445q145 -209 419 -209q105 0 186.5 30t150.5 91.5t115 148t65 184t18 179.5v60z" />
<glyph unicode="P" d="M74 1431h430q165 0 227 -12q103 -21 171 -70.5t107.5 -132.5t39.5 -184q0 -106 -44 -194.5t-115.5 -144.5t-149.5 -74q-79 -19 -240 -19h-120l-3 -510h196l-1 -90h-472l1 90h161l8 1251h-197zM381 698h58q141 0 184 4q69 6 123 28t96.5 63t65.5 102.5t23 136.5 q0 144 -93 227t-296 83l-42 -1h-114z" />
<glyph unicode="Q" horiz-adv-x="1552" d="M1718 -264v-97q-46 -8 -93 -8q-125 0 -268 45q-180 57 -478 218q-88 48 -126 65q-108 7 -181 28q-111 33 -202 104.5t-146.5 166t-82 204t-26.5 231.5q0 172 45 312q46 141 133.5 238.5t191.5 147.5q138 67 303 67q194 0 342.5 -91.5t226 -271.5t77.5 -374 q0 -109 -26 -226t-78 -211.5t-121 -158.5t-144 -100q-54 -26 -130 -42l340 -165q95 -42 187.5 -65.5t171.5 -23.5q45 0 84 7zM779 62q133 0 241 57q78 41 143 117.5t102 178.5q49 137 49 294q0 127 -34 249t-95.5 205.5t-166.5 136.5t-239 53q-161 0 -287.5 -79.5 t-191.5 -228t-65 -334.5q0 -149 41.5 -275t113 -209t174.5 -124t215 -41z" />
<glyph unicode="R" horiz-adv-x="1327" d="M98 1431h448q162 0 228 -14q95 -19 160 -70.5t94.5 -123t29.5 -154.5q0 -97 -42.5 -183t-122.5 -138t-172 -62q37 -12 62 -30q38 -28 67 -69q54 -75 70 -102l117 -202q62 -107 86 -138t51.5 -44t78.5 -13q18 0 56 2v-90q-50 -7 -85 -7q-89 0 -137.5 32t-115.5 147 l-116 198q-62 107 -101 163t-74 80t-69 31q-35 7 -117 8h-97l-4 -562h181v-90h-465l1 90h168l9 1251h-190zM397 750h124q85 0 118 3q64 7 106 23q58 21 103 63.5t68.5 99.5t23.5 123q0 69 -27.5 129t-77 94.5t-122.5 46.5q-54 9 -178 9h-133z" />
<glyph unicode="S" horiz-adv-x="1176" d="M1006 1129h-98l-4 189q-116 38 -253 38q-126 0 -212 -38.5t-123 -102.5t-37 -143q0 -83 37.5 -134t124.5 -91q41 -19 242 -79q150 -46 225 -92q76 -46 115.5 -119.5t39.5 -171.5q0 -106 -43 -186t-112 -130.5t-152 -73.5t-203 -23q-119 0 -214 17t-187 51l-3 283h107 l1 -204q124 -58 304 -58q120 0 209.5 39t132 111t42.5 160q0 63 -20.5 108.5t-59 77.5t-118.5 65q-33 13 -155 51q-171 54 -224 77q-75 33 -119 77.5t-66.5 104t-22.5 131.5q0 169 125.5 279t372.5 110q108 0 209 -19q63 -12 136 -40z" />
<glyph unicode="T" horiz-adv-x="1368" d="M1311 1110h-102l-8 229h-454l-9 -1249h195l-1 -90h-478v90h170l9 1249h-455l-14 -229h-100l13 321h1224z" />
<glyph unicode="U" horiz-adv-x="1556" d="M1478 1431v-90h-163l-5 -730q-1 -182 -9 -241q-14 -101 -56 -175.5t-111 -124.5t-162 -72t-204 -22q-161 0 -265 42t-157 104t-75 139q-23 77 -23 220l2 213l4 647h-180v90h465l-1 -90h-169l-5 -658l-2 -134q0 -189 25 -260t74 -115.5t124.5 -70.5t196.5 -26 q149 0 236.5 44t125.5 106t49 175q6 70 10 363l4 576h-185v90h456z" />
<glyph unicode="V" horiz-adv-x="1441" d="M1433 1431v-90h-140l-515 -1350h-119l-513 1350h-145v90h445v-90h-174l454 -1225l453 1225h-180v90h434z" />
<glyph unicode="W" horiz-adv-x="2162" d="M2142 1431v-90h-142l-482 -1341h-128l-285 905l-366 -905h-130l-445 1341h-155v90h447v-90h-169l398 -1237l372 952l-89 285h-162v90h444v-90h-169l380 -1237l431 1237h-190v90h440z" />
<glyph unicode="X" horiz-adv-x="1403" d="M1340 1431v-90h-141l-427 -605l434 -646h144l-1 -90h-455l1 90h174l-364 554l-385 -554h187v-90h-449l1 90h134l453 638l-408 613h-154v90h463v-90h-176l345 -524l361 524h-183v90h446z" />
<glyph unicode="Y" horiz-adv-x="1441" d="M1431 1431v-90h-137l-500 -701l-4 -550h178l-1 -90h-459v90h167l4 548l-512 703h-158l1 90h445l-1 -90h-146l433 -602l431 602h-183v90h442z" />
<glyph unicode="Z" horiz-adv-x="1327" d="M1208 1431v-90l-934 -1250h819l10 227h104l-11 -318h-1067v82l943 1258h-798l-14 -220h-105l16 311h1037z" />
<glyph unicode="[" horiz-adv-x="645" d="M570 1574v-92h-212l-18 -1914h210v-91h-321l23 2097h318z" />
<glyph unicode="\" horiz-adv-x="796" d="M50 1505l92 35l720 -1813l-93 -37z" />
<glyph unicode="]" horiz-adv-x="645" d="M425 1574l-23 -2097h-317v91h209l20 1914h-214v92h325z" />
<glyph unicode="^" horiz-adv-x="1214" d="M209 582l343 849h109l343 -849h-118l-281 721l-279 -721h-117z" />
<glyph unicode="_" horiz-adv-x="1024" d="M0 -256v102h1024v-102h-1024z" />
<glyph unicode="`" horiz-adv-x="569" d="M16 1544l78 65l356 -307l-74 -60z" />
<glyph unicode="a" horiz-adv-x="1176" d="M1081 90v-90h-274l14 219q-33 -76 -62 -113q-41 -54 -111.5 -91t-171.5 -37q-156 0 -240 80t-84 209q0 73 26 127.5t76.5 94t128.5 61.5q79 22 201 30l235 11q2 58 2 87q0 100 -13 150q-14 51 -44.5 82.5t-88.5 52.5t-138 21q-57 0 -122.5 -11.5t-117.5 -33.5l-5 -176 h-100l4 243q84 37 178 55t171 18q118 0 199 -34.5t117.5 -83t49.5 -105.5q14 -57 14 -158q0 -69 -16 -608h172zM816 502q-344 -8 -433 -49q-120 -55 -120 -179q0 -88 60.5 -145t167.5 -57q105 0 183 58.5t107.5 140.5t34.5 231z" />
<glyph unicode="b" horiz-adv-x="1214" d="M318 1574l-10 -727q30 65 56 97q36 43 83 73.5t104.5 46.5t123.5 16q126 0 223.5 -58t150.5 -175.5t53 -277.5q0 -276 -152.5 -435.5t-396.5 -159.5q-216 0 -357 82l14 1427h-205v91h313zM302 120q71 -30 127 -42t122 -12q233 0 335.5 143t102.5 353q0 221 -98 321 t-237 100q-106 0 -187 -59t-117.5 -149t-37.5 -175z" />
<glyph unicode="c" horiz-adv-x="1062" d="M948 769h-98l-3 181q-87 35 -200 35q-192 0 -304 -117t-112 -333q0 -124 41 -228q30 -75 85 -127.5t123.5 -78t167.5 -25.5q75 0 144.5 13.5t153.5 44.5v-104q-145 -52 -309 -52q-157 0 -272 59.5t-181 188.5t-66 310q0 294 185 438q137 106 341 106q65 0 130.5 -11.5 t172.5 -45.5z" />
<glyph unicode="d" horiz-adv-x="1252" d="M1014 1574l-11 -1484h177v-90h-285l7 204q-40 -76 -86.5 -123t-119 -75.5t-159.5 -28.5q-180 0 -300.5 133t-120.5 378q0 274 146.5 427.5t383.5 153.5q123 0 254 -42l8 453h-236v94h342zM900 924q-121 51 -259 51q-183 0 -296.5 -124t-113.5 -359q0 -205 91.5 -310 t234.5 -105q121 0 201 65t111 162q31 98 31 268v352z" />
<glyph unicode="e" horiz-adv-x="1100" d="M951 155l-4 -102q-140 -81 -337 -81q-233 0 -370 143t-137 408q0 123 30.5 227t89.5 174.5t132 108.5q101 51 221 51q111 0 189 -42.5t125 -107t69 -139.5q31 -104 36 -260h-778q-1 -17 -1 -26q0 -139 51.5 -242.5t150.5 -151.5t213 -48q169 0 320 88zM888 627 q-10 122 -45 198q-36 77 -109.5 121.5t-168.5 44.5q-142 0 -237 -94.5t-106 -269.5h666z" />
<glyph unicode="f" horiz-adv-x="759" d="M698 1052v-90h-298l-1 -872h186v-90h-451v90h156l4 872h-190v90h187l2 110q2 118 14 170q21 83 74 144t139 94t183 33q102 0 181 -31l-9 -93q-92 28 -168 28q-111 0 -180.5 -40t-95.5 -103q-27 -63 -29 -206l-2 -106h298z" />
<glyph unicode="g" horiz-adv-x="1100" d="M1094 1043l-1 -95l-257 5q55 -55 80 -108q33 -73 33 -160q0 -92 -37.5 -168t-93 -124t-123.5 -70q-69 -22 -156 -24q-25 -1 -43 -3q-30 0 -83 -17t-78 -43t-25 -53q0 -26 21 -46q28 -26 105 -42q48 -10 256 -42q164 -25 218 -45q80 -29 123 -86t43 -135 q0 -132 -125 -233.5t-373 -101.5q-144 0 -263 36q-119 37 -174 104.5t-55 144.5q0 93 78 174t210 100q-90 23 -130.5 66.5t-40.5 89.5q0 53 44.5 99t141.5 64q-112 31 -174 99q-92 99 -92 248q0 112 51 205t146.5 142.5t212.5 49.5q83 0 173 -30l156 3q19 0 64 -1zM845 693 q0 35 -13 81q-18 61 -57.5 107.5t-103 72t-134.5 25.5q-137 0 -221.5 -82t-84.5 -207q0 -80 38 -150t112 -108.5t162 -38.5q136 0 219 83t83 217zM483 -17q-148 -40 -216.5 -95t-68.5 -136q0 -49 36 -94t106 -74q101 -42 241 -42q196 0 309 85q80 61 80 150q0 50 -28.5 86.5 t-99.5 59.5t-273 49z" />
<glyph unicode="h" horiz-adv-x="1327" d="M372 1574l-1 -709q36 67 70 101q51 52 126.5 84t165.5 32q82 0 151 -26t110.5 -68t64.5 -98q17 -42 22 -112q7 -92 7 -138v-550h167v-90h-433v90h159v527q0 149 -21 212q-21 64 -84.5 107.5t-155.5 43.5q-91 0 -164 -38t-119 -102t-59 -155q-13 -92 -13 -179v-416h173 v-90h-440v90h158l8 1392h-227v92h335z" />
<glyph unicode="i" horiz-adv-x="607" d="M390 1488q0 -52 -28 -82t-70 -30q-41 0 -69 29t-28 73q0 46 29 75.5t72 29.5q40 0 67 -27t27 -68zM372 1052l-13 -962h180v-90h-480v90h190l14 872h-215v90h324z" />
<glyph unicode="j" horiz-adv-x="645" d="M419 1483q0 -49 -27.5 -78.5t-70.5 -29.5q-41 0 -67.5 27t-26.5 71q0 48 26.5 75t72.5 27q44 0 68.5 -24.5t24.5 -67.5zM410 1052l-9 -754q-3 -240 -18 -340q-20 -140 -85.5 -245t-170 -168.5t-218.5 -83.5l-17 89q83 17 165 67t127.5 110.5t70.5 144.5q26 85 33 207 q2 32 5 250l4 633h-214v90h327z" />
<glyph unicode="k" horiz-adv-x="1176" d="M374 1574l-10 -992l452 381h-152v89h411v-90h-125l-464 -396l519 -476h114v-90h-405v90h148l-499 448l1 -448h162v-90h-443v90h171l9 1391h-231v93h342z" />
<glyph unicode="l" horiz-adv-x="647" d="M384 1574l-8 -1484h180v-90h-457v90h167l9 1391h-227v93h336z" />
<glyph unicode="m" horiz-adv-x="2007" d="M88 1052h294l-12 -218q47 118 140.5 181t224.5 63q98 0 168 -35.5t111 -100.5q26 -42 43 -116q36 109 137 179.5t236 70.5q125 0 204.5 -56.5t110.5 -136.5q31 -81 29 -224l-8 -569h170v-90h-424v90h145l5 561q1 111 -15 167q-21 73 -78.5 118t-153.5 45 q-175 0 -274 -138q-66 -93 -67 -245l-6 -508h164v-90h-417v90h147l6 487q2 145 -4 190q-8 63 -36.5 109.5t-84 77t-127.5 30.5q-88 0 -170 -47.5t-126 -133.5q-45 -87 -47 -221l-6 -492h166v-90h-424v90h150l11 872h-182v90z" />
<glyph unicode="n" horiz-adv-x="1327" d="M88 1052h295l-9 -216q41 88 88.5 136.5t125.5 78.5t165 30q96 0 168.5 -37t111 -96.5t52.5 -139.5q11 -60 9 -190l-7 -528h170v-90h-426v90h147l7 569q2 113 -21.5 177.5t-83 104t-150.5 39.5q-99 0 -181 -46.5t-128 -143.5t-47 -221l-4 -479h171v-90h-430v90h150l12 872 h-185v90z" />
<glyph unicode="o" horiz-adv-x="1176" d="M1074 564q0 -294 -144 -456q-122 -137 -343 -137q-218 0 -352 143t-134 398q0 268 143.5 422t358.5 154q139 0 246 -68t166 -194.5t59 -261.5zM962 571q0 59 -22.5 139.5t-66 142t-113 99t-163.5 37.5q-167 0 -275 -120.5t-108 -353.5q0 -218 103.5 -332t273.5 -114 q63 0 114.5 15.5t94 47t82.5 90.5t60 136.5t20 139.5v73z" />
<glyph unicode="p" horiz-adv-x="1252" d="M349 16v-445h191v-93h-468v93h168l13 1391h-198v90h311l-10 -208q49 85 86 122q52 52 125.5 80.5t161.5 28.5q182 0 301.5 -128t119.5 -362q0 -167 -66.5 -311.5t-212.5 -228.5q-112 -65 -275 -65q-141 0 -247 36zM355 123q109 -47 246 -47q107 0 181 30t131 90t91 157 q34 98 34 223q0 192 -93 295t-234 103q-102 0 -189 -53.5t-126 -150.5q-39 -98 -40 -272z" />
<glyph unicode="q" horiz-adv-x="1252" d="M1012 1032l-13 -1464h193v-92h-473v92h173l2 621q-37 -67 -69 -100q-46 -50 -114.5 -81t-167.5 -31q-198 0 -313.5 137t-115.5 366q0 149 57 286.5t184 219t308 81.5q53 0 95 -7q28 -4 171 -37zM901 924q-111 47 -251 47q-182 0 -300.5 -128t-118.5 -353 q0 -201 91 -305.5t232 -104.5q108 0 191 55t119 156q37 101 37 287v346z" />
<glyph unicode="r" horiz-adv-x="872" d="M79 1052h307l-5 -316q31 104 65 161q52 86 126 132.5t163 46.5q71 0 140 -23l-17 -102q-61 22 -123 22q-64 0 -116.5 -24.5t-99.5 -73.5t-75 -107t-47 -161q-14 -72 -16 -202l-6 -315h197v-90h-471v90h165l14 872h-201v90z" />
<glyph unicode="s" horiz-adv-x="985" d="M797 775h-97l-10 169q-46 22 -80 30q-64 15 -131 15q-129 0 -194 -58t-65 -147q0 -56 29 -94.5t90 -61.5q47 -19 161 -42t161 -39q70 -25 109 -57.5t62.5 -80.5t23.5 -119q0 -142 -97 -229.5t-291 -87.5q-182 0 -351 69l-7 255h100l7 -180q64 -28 120.5 -40t129.5 -12 q117 0 185 43q96 60 96 174q0 49 -17 80.5t-48.5 54t-85.5 38.5q-30 9 -143 32q-179 36 -247 87q-96 72 -96 200q0 118 74 200q96 106 298 106q76 0 159.5 -17t148.5 -48z" />
<glyph unicode="t" horiz-adv-x="796" d="M730 1052v-90h-349l-16 -556q-2 -48 -2 -73q0 -107 16 -159t56.5 -78t99.5 -26q41 0 109.5 16.5t124.5 44.5v-96q-117 -55 -236 -55q-139 0 -208 74t-69 248q0 22 1 42q1 21 2 38l14 580h-185v90h185l10 277l108 5l-10 -282h349z" />
<glyph unicode="u" horiz-adv-x="1327" d="M1081 1052l-12 -962h170v-90h-281l10 219q-49 -111 -119 -167q-100 -81 -243 -81q-89 0 -156 28t-111 77.5t-64 105.5q-28 81 -26 220l12 560h-183v90h292l-11 -605q-3 -136 23 -212q27 -77 90.5 -120t154.5 -43q72 0 130.5 26t100 71t68 106t34.5 142q9 82 9 160l3 385 h-183v90h292z" />
<glyph unicode="v" d="M403 1052v-90h-132l293 -825l299 825h-154v90h387v-90h-125l-361 -970h-101l-362 970h-135v90h391z" />
<glyph unicode="w" horiz-adv-x="1707" d="M440 1052v-90h-153l286 -836l237 659l-60 177h-118v90h392v-90h-161l275 -830l290 830h-148v90h384v-90h-130l-349 -962h-113l-214 641l-238 -641h-111l-338 962h-133v90h402z" />
<glyph unicode="x" horiz-adv-x="1176" d="M476 1052v-90h-136l256 -351l265 351h-157v90h397v-90h-127l-322 -419l340 -453h131v-90h-398v90h139l-277 375l-282 -375h143v-90h-395v90h130l347 445l-319 427h-142v90h407z" />
<glyph unicode="y" d="M422 1052v-90h-149l310 -840l292 840h-159v90h392v-90h-126l-338 -945q-64 -180 -136 -306q-51 -92 -100.5 -140t-118.5 -78t-162 -30q-50 0 -116 15v100q74 -14 106 -14q80 0 138.5 26t108 81.5t89.5 137.5q2 4 68 164l-373 989h-137v90h411z" />
<glyph unicode="z" horiz-adv-x="1062" d="M956 1052v-90l-697 -872h588l13 193h101l-16 -283h-831v83l703 880l-568 -1l-10 -185h-96l10 275h803z" />
<glyph unicode="{" horiz-adv-x="645" d="M128 480l1 90q58 4 88 52q44 69 45 262l3 411q1 114 29 173.5t73.5 82.5t102.5 23h104l-1 -91h-102q-46 0 -72.5 -33t-26.5 -124l-4 -463q-1 -121 -19 -192t-55 -108q-25 -25 -67 -36v-4q62 -15 100 -82q38 -68 37 -254l-4 -463q0 -90 29 -128q22 -29 69 -29h102l-1 -90 h-104q-97 0 -149 62q-53 63 -52 216l3 412q1 193 -42 262q-28 47 -87 51z" />
<glyph unicode="|" horiz-adv-x="455" d="M173 -439v2048h110v-2048h-110z" />
<glyph unicode="}" horiz-adv-x="645" d="M517 570l-1 -90q-58 -4 -88 -51q-44 -69 -45 -262l-3 -412q-1 -113 -29 -173t-73.5 -82.5t-102.5 -22.5h-104l1 90h102q46 0 72.5 33.5t26.5 123.5l4 463q1 121 19 192t55 108q25 25 67 36v4q-62 16 -100 83q-38 68 -37 253l4 463q0 90 -29 128q-22 29 -69 29h-102l1 91 h104q97 0 149 -62q53 -63 52 -217l-3 -411q-1 -193 41 -263q29 -47 88 -51z" />
<glyph unicode="~" horiz-adv-x="1214" d="M1142 634q-14 -130 -81.5 -197t-159.5 -67q-45 0 -100 13q-75 18 -290 92q-96 33 -128 40q-33 7 -62 7q-62 0 -110 -45t-60 -125h-78q14 88 33 129q26 57 81.5 98t128.5 41q47 0 89 -10t280 -89q121 -39 152 -46t60 -7q68 0 117 50q37 38 53 116h75z" />
<glyph unicode="&#xa0;" />
<glyph unicode="&#xa1;" horiz-adv-x="647" d="M228 976q0 46 28 74t70 28q40 0 66.5 -28t26.5 -72q0 -43 -27.5 -71t-69.5 -28t-68 26.5t-26 70.5zM247 -524l16 1082h99l7 -1082h-122z" />
<glyph unicode="&#xa2;" d="M669 1299l-2 -227q29 1 31 1q124 0 298 -53l-2 -255h-96l1 178q-94 35 -205 35q-8 0 -25 -1l-3 -904q77 0 142 14t168 55v-104q-102 -36 -164 -48q-63 -12 -146 -13l-3 -253h-89l3 253q-196 14 -320 156t-124 381q0 129 33.5 226.5t92 162.5t133 104t191.5 61l1 231h85z M582 968q-143 -15 -238.5 -132t-95.5 -316q0 -198 98.5 -315t230.5 -125z" />
<glyph unicode="&#xa3;" d="M1053 1137h-98v192q-128 28 -223 28q-82 0 -154 -24q-49 -17 -88.5 -48t-66 -74t-37.5 -102t-11 -136q0 -69 5 -173h325v-94h-321l11 -227q2 -50 2 -79q0 -108 -22 -191q-16 -63 -52 -119h619l15 200h101l-18 -290h-989v90h158q41 74 56 131q19 78 19 183q0 32 -13 302 h-182v94h178q-4 84 -4 156q0 150 23 226q24 76 90.5 141.5t160.5 96.5q95 32 204 32q152 0 312 -53v-262z" />
<glyph unicode="&#xa4;" horiz-adv-x="1139" d="M103 316l130 129q-44 58 -64 110q-30 77 -30 158q0 147 93 267l-130 130l70 69l129 -129q66 48 128.5 70t140.5 22q76 0 139.5 -22.5t127.5 -69.5l129 129l70 -70l-129 -130q92 -126 92 -267q0 -139 -93 -266l130 -131l-70 -70l-131 131q-122 -94 -266 -94q-65 0 -135 23 t-131 71l-130 -130zM570 1036q-82 0 -159.5 -42t-121 -120t-43.5 -162t43 -161t120 -120t161 -43t161 43t119.5 120t42.5 161t-43.5 162t-121 120t-158.5 42z" />
<glyph unicode="&#xa5;" d="M503 390h-274v88h275l1 161h-276v88h216l-414 614h-158l1 90h445l1 -90h-148l395 -602l394 602h-184v90h442v-90h-136l-405 -614h221v-88h-279l-1 -161h280v-88h-280l-3 -300h178l-1 -90h-459v90h167z" />
<glyph unicode="&#xa6;" horiz-adv-x="455" d="M173 841v512h110v-512h-110zM173 -183v512h110v-512h-110z" />
<glyph unicode="&#xa7;" d="M946 1168h-100v159q-124 40 -233 40q-101 0 -167 -27t-100 -79.5t-34 -108.5q0 -52 26 -97.5t71 -79.5q30 -24 132 -79q218 -120 271 -157q72 -51 106 -111t34 -135q0 -83 -45.5 -158.5t-143.5 -131.5q71 -50 103.5 -84.5t56 -89t23.5 -117.5q0 -89 -48 -167t-144.5 -124 t-232.5 -46q-85 0 -168 18t-183 57v265h101v-186q125 -57 253 -57q153 0 233 69t80 172q0 59 -28.5 104.5t-93.5 89.5q-31 21 -254 141q-113 61 -161 98q-48 38 -79 93t-31 125q0 69 29 131t77 106q35 32 96 63q-187 105 -187 277q0 135 104 226.5t308 91.5q89 0 182 -16 q58 -11 147 -41v-234zM682 251q64 41 86 63q33 31 54 75.5t21 91.5q0 43 -18 82.5t-56 73.5t-125 83l-169 92q-86 -42 -130 -101.5t-44 -127.5q0 -73 39 -124t174 -121z" />
<glyph unicode="&#xa8;" horiz-adv-x="569" d="M156 1416q0 -47 -26.5 -74t-65.5 -27q-37 0 -62 25.5t-25 67.5q0 44 26 71t64 27q39 0 64 -25.5t25 -64.5zM593 1414q0 -46 -24.5 -72t-64.5 -26q-42 0 -66 24t-24 66q0 44 26 71.5t66 27.5q38 0 62.5 -25t24.5 -66z" />
<glyph unicode="&#xa9;" horiz-adv-x="1600" d="M800 1466q190 0 370.5 -97.5t282 -279t101.5 -377.5q0 -125 -39 -239q-39 -115 -106 -205q-67 -91 -160 -161q-94 -71 -211 -109.5t-238 -38.5q-125 0 -239 38q-114 39 -204 105t-161 158q-71 93 -111 211t-40 241q0 196 101.5 377.5t282 279t371.5 97.5zM800 1394 q-172 0 -336 -88t-255.5 -252t-91.5 -342q0 -110 35.5 -216.5t99.5 -190.5t146 -144t185 -95q104 -35 217 -35q155 0 295 66q102 49 187 132.5t142.5 209t57.5 273.5q0 177 -91.5 341.5t-255 252.5t-335.5 88zM1103 958h-68v129q-95 22 -181 22q-200 0 -308.5 -104.5 t-108.5 -279.5q0 -173 106 -275.5t299 -102.5q95 0 180 19l5 131h68l-6 -177q-127 -33 -248 -33q-163 0 -272.5 58t-159 160t-49.5 221q0 193 129.5 317.5t354.5 124.5q138 0 262 -40z" />
<glyph unicode="&#xaa;" horiz-adv-x="764" d="M703 853v-54h-178l9 132q-21 -45 -40 -68q-26 -32 -71.5 -54.5t-113.5 -22.5q-103 0 -156.5 49t-53.5 124q0 53 25 91.5t79 63t147 31.5l183 9q1 35 1 53q0 72 -15 106t-57.5 55.5t-111.5 21.5q-88 0 -157 -27l-3 -106h-65l3 146q107 43 226 43q79 0 132.5 -21.5t76 -51 t30.5 -62.5t8 -92q0 -28 -10 -366h112zM531 1101q-227 -5 -293 -34q-67 -30 -67 -103q0 -52 39 -86.5t109 -34.5q69 0 119.5 35t69.5 84t23 139z" />
<glyph unicode="&#xab;" horiz-adv-x="948" d="M806 809l-248 -275l239 -268l-74 -67l-262 291v83l278 300zM449 805l-248 -275l242 -264l-72 -69l-265 291v84l278 294z" />
<glyph unicode="&#xac;" horiz-adv-x="1214" d="M98 630v99h1018v-472h-102v373h-916z" />
<glyph unicode="&#xae;" horiz-adv-x="796" d="M397 1466q95 0 184.5 -48.5t140 -139t50.5 -188.5q0 -97 -49.5 -186.5t-139 -139.5t-185.5 -50t-185.5 50t-139 139.5t-49.5 186.5q0 98 50.5 188.5t140 139t182.5 48.5zM397 1410q-79 0 -155 -41.5t-119 -119t-43 -159.5q0 -83 42.5 -159t118 -118.5t157.5 -42.5 t157.5 42.5t118 119t42.5 158.5t-43 159.5t-119 119t-157 41.5zM226 1293h139q59 0 84 -6q37 -10 55.5 -33.5t18.5 -55.5q0 -39 -28.5 -68t-75.5 -34q31 -9 61 -53l36 -54q23 -33 34.5 -40.5t36.5 -7.5q5 0 13 1v-28q-16 -2 -29 -2q-35 0 -50.5 8.5t-36.5 39.5l-36 52 q-30 45 -43 56q-13 12 -27 16q-11 3 -59 3l-2 -143h56v-30h-143v30h40l3 320h-47v29zM320 1264l-1 -146h26q65 0 93 18q36 23 36 60q0 34 -28 51t-97 17h-29z" />
<glyph unicode="&#xaf;" horiz-adv-x="569" d="M552 1473v-89h-535v89h535z" />
<glyph unicode="&#xb0;" horiz-adv-x="834" d="M417 1446q77 0 149.5 -39t113.5 -112t41 -152t-40 -151t-112.5 -112.5t-151.5 -40.5q-78 0 -150.5 40.5t-112.5 112.5t-40 151t41 152t113.5 112t148.5 39zM417 1348q-51 0 -100 -26.5t-77 -76t-28 -102.5q0 -85 60.5 -145t144.5 -60q86 0 146 60t60 145t-60 145t-146 60 z" />
<glyph unicode="&#xb1;" horiz-adv-x="1214" d="M552 176v364h-454v98h454v364h110v-364h454v-98h-454v-364h-110zM98 -16v98h1018v-98h-1018z" />
<glyph unicode="&#xb2;" horiz-adv-x="740" d="M651 637v-59h-567v50q308 271 400 406q66 97 66 180q0 77 -51 126t-137 49q-85 0 -141 -49t-65 -133h-72q11 105 88 173t195 68q120 0 189 -65t69 -164q0 -96 -72 -203q-93 -139 -375 -379h473z" />
<glyph unicode="&#xb3;" horiz-adv-x="740" d="M156 1231h-66q1 90 73.5 153t197.5 63q117 0 179.5 -57.5t62.5 -145.5q0 -78 -52.5 -138t-142.5 -78q95 -11 151 -53q82 -62 82 -163q0 -103 -85.5 -177t-245.5 -74q-128 0 -217 45l3 66q94 -52 216 -52q125 0 190 55.5t65 132.5q0 75 -63.5 125.5t-207.5 50.5 q-20 0 -58 -2v59q146 0 218.5 58.5t72.5 136.5q0 69 -46 111t-133 42q-84 0 -133.5 -41t-60.5 -117z" />
<glyph unicode="&#xb4;" horiz-adv-x="569" d="M550 1549l-362 -305l-73 55l362 314z" />
<glyph unicode="&#xb5;" horiz-adv-x="1176" d="M164 -424v1476h110v-546q0 -171 27 -251q27 -81 96.5 -131.5t160.5 -50.5q90 0 167.5 51t114.5 138q38 88 38 253v537h110v-1052h-110v157q-69 -94 -145.5 -137.5t-181.5 -43.5q-73 0 -125.5 21t-90.5 55q-26 25 -61 76v-552h-110z" />
<glyph unicode="&#xb6;" horiz-adv-x="1229" d="M1101 1341h-109v-1723h-110v1723h-259v-1723h-109v893q-105 5 -181 38t-126 86.5t-76 114.5q-42 98 -42 210q0 143 63 249t170 164t291 58h488v-90z" />
<glyph unicode="&#xb8;" horiz-adv-x="569" d="M188 -407l13 81q80 -31 163 -31q66 0 92.5 21t26.5 55t-27.5 54.5t-123.5 23.5v220h81v-149q87 0 132.5 -39.5t45.5 -101.5q0 -73 -55 -119.5t-171 -46.5q-98 0 -177 32z" />
<glyph unicode="&#xb9;" horiz-adv-x="740" d="M457 1437l-6 -805h200v-54h-461v54h190l7 732l-247 -147l-35 50l295 170h57z" />
<glyph unicode="&#xba;" horiz-adv-x="705" d="M36 1114q0 88 38 165t114.5 122.5t173.5 45.5q135 0 221 -89t86 -239q0 -140 -77 -241.5t-240 -101.5q-84 0 -143 27t-100 75q-32 36 -49 79q-24 61 -24 157zM109 1116q0 -86 20 -136q25 -65 81 -105t145 -40q107 0 174 73.5t67 202.5q0 132 -65.5 204t-172.5 72 q-73 0 -131 -34t-88 -98t-30 -139z" />
<glyph unicode="&#xbb;" horiz-adv-x="948" d="M577 874l262 -298v-81l-273 -301l-75 65l253 269l-239 278zM228 872l263 -297v-84l-275 -295l-70 65l253 265l-246 279z" />
<glyph unicode="&#xbc;" horiz-adv-x="1708" d="M1364 1485l-949 -1605l-81 52l949 1606zM367 1437l-6 -805h200v-54h-461v54h190l7 732l-247 -147l-35 50l295 170h57zM1585 322v-56h-185v-212h114v-54h-298v54h114v214h-414v50l419 541h65v-537h185zM1330 322l1 443l-343 -443h342z" />
<glyph unicode="&#xbd;" horiz-adv-x="1821" d="M1375 1485l-949 -1605l-81 52l949 1606zM396 1437l-6 -805h200v-54h-461v54h190l7 732l-247 -147l-35 50l295 170h57zM1670 59v-59h-567v50q308 271 401 406q66 97 66 180q0 76 -51.5 125.5t-137.5 49.5q-85 0 -140.5 -49t-65.5 -133h-72q11 105 88 173t195 68 q120 0 189 -65t69 -164q0 -96 -72 -203q-93 -139 -375 -379h473z" />
<glyph unicode="&#xbe;" horiz-adv-x="1821" d="M1418 1485l-949 -1605l-80 52l948 1606zM138 1231h-66q1 90 73.5 153t197.5 63q117 0 179.5 -57.5t62.5 -145.5q0 -78 -52.5 -138t-142.5 -78q95 -11 151 -53q82 -62 82 -163q0 -103 -85.5 -177t-245.5 -74q-128 0 -217 45l3 66q94 -52 216 -52q125 0 190 55.5t65 132.5 q0 75 -63.5 125.5t-207.5 50.5q-20 0 -58 -2v59q146 0 218.5 58.5t72.5 136.5q0 69 -46 111t-133 42q-84 0 -133.5 -41t-60.5 -117zM1770 322v-56h-185v-212h114v-54h-298v54h114v214h-414v50l419 541h65v-537h185zM1515 322l1 443l-343 -443h342z" />
<glyph unicode="&#xbf;" horiz-adv-x="1024" d="M490 972q0 49 26.5 76.5t69.5 27.5q44 0 69.5 -26t25.5 -70q0 -48 -26.5 -75.5t-69.5 -27.5t-69 26.5t-26 68.5zM537 515l75 71q95 -81 95 -184q0 -61 -30 -112t-108 -109q-127 -96 -152 -117q-58 -50 -90 -93t-43.5 -76.5t-11.5 -80.5q0 -118 76.5 -189.5t218.5 -71.5 q99 0 184 31l14 -98q-41 -16 -101.5 -26t-112.5 -10q-116 0 -209.5 45t-141 125.5t-47.5 177.5q0 78 28.5 142t74.5 115q47 51 145 125t132 106q35 32 50.5 60t15.5 53q0 50 -62 116z" />
<glyph unicode="&#xc0;" horiz-adv-x="1479" d="M821 1431l489 -1341h150v-90h-449v90h176l-182 504h-536l-200 -504h189v-90h-442v90h136l553 1341h116zM507 688h464l-219 612zM494 1789l78 65l356 -307l-74 -60z" />
<glyph unicode="&#xc1;" horiz-adv-x="1479" d="M821 1431l489 -1341h150v-90h-449v90h176l-182 504h-536l-200 -504h189v-90h-442v90h136l553 1341h116zM507 688h464l-219 612zM1021 1792l-362 -305l-73 55l362 314z" />
<glyph unicode="&#xc2;" horiz-adv-x="1479" d="M821 1431l489 -1341h150v-90h-449v90h176l-182 504h-536l-200 -504h189v-90h-442v90h136l553 1341h116zM507 688h464l-219 612zM1055 1548l-72 -61l-231 262l-234 -262l-67 61l257 282h96z" />
<glyph unicode="&#xc3;" horiz-adv-x="1479" d="M821 1431l489 -1341h150v-90h-449v90h176l-182 504h-536l-200 -504h189v-90h-442v90h136l553 1341h116zM507 688h464l-219 612zM1044 1755l74 -56q-87 -133 -208 -133q-36 0 -65 10q-30 11 -83 44t-73 41q-21 8 -40 8q-35 0 -65.5 -20.5t-68.5 -75.5l-83 50 q78 144 214 144q38 0 69 -10q32 -11 75 -39q58 -37 79 -45q21 -9 43 -9q32 0 56.5 15t75.5 76z" />
<glyph unicode="&#xc4;" horiz-adv-x="1479" d="M821 1431l489 -1341h150v-90h-449v90h176l-182 504h-536l-200 -504h189v-90h-442v90h136l553 1341h116zM507 688h464l-219 612zM637 1657q0 -47 -26.5 -74t-65.5 -27q-37 0 -62 25.5t-25 67.5q0 44 26 71t64 27q39 0 64 -25.5t25 -64.5zM1074 1655q0 -46 -24.5 -72 t-64.5 -26q-42 0 -66 24t-24 66q0 44 26 71.5t66 27.5q38 0 62.5 -25t24.5 -66z" />
<glyph unicode="&#xc5;" horiz-adv-x="1479" d="M821 1431l489 -1341h150v-90h-449v90h176l-182 504h-536l-200 -504h189v-90h-442v90h136l553 1341h116zM507 688h464l-219 612zM959 1675q0 -88 -52.5 -141.5t-131.5 -53.5q-82 0 -134.5 52t-52.5 133q0 90 58.5 139.5t131.5 49.5q79 0 130 -50.5t51 -128.5zM873 1682 q0 30 -23.5 61.5t-71.5 31.5q-47 0 -76 -30t-29 -83q0 -49 27.5 -77.5t70.5 -28.5q48 0 75 29.5t27 96.5z" />
<glyph unicode="&#xc6;" horiz-adv-x="1972" d="M1798 1431l3 -287h-98l-6 197h-510l-4 -607h506v-90h-507l-4 -554h570l12 217h99l-14 -307h-946l2 90h164l4 554h-507l-310 -554h180l-2 -90h-441v90h141l762 1341h906zM1069 734l4 607h-125l-341 -607h462z" />
<glyph unicode="&#xc7;" horiz-adv-x="1403" d="M1167 332h107l-9 -295q-173 -52 -399 -54v-115q88 0 133.5 -39.5t45.5 -101.5q0 -73 -55 -119.5t-172 -46.5q-97 0 -176 32l12 81q80 -31 164 -31q66 0 92.5 21t26.5 55t-28 54.5t-123 23.5v189q-132 11 -227 44q-132 47 -225.5 135.5t-144.5 210.5q-64 152 -64 336 q0 315 199.5 525.5t559.5 210.5q215 0 408 -67l-6 -282h-105v213l-112 23q-30 6 -71 10q-58 6 -111 6q-152 0 -270.5 -45.5t-194.5 -122.5t-118 -176q-58 -134 -58 -296q0 -155 49 -275.5t130.5 -196.5t190 -116.5t269.5 -40.5q121 0 274 33z" />
<glyph unicode="&#xc8;" horiz-adv-x="1176" d="M1030 1145h-96l1 196h-543l-4 -569h494l-1 -95h-493l-4 -587h568l14 214h97l-13 -304h-944l1 90h162l8 1251h-177v90h932zM327 1789l78 65l356 -307l-74 -60z" />
<glyph unicode="&#xc9;" horiz-adv-x="1176" d="M1030 1145h-96l1 196h-543l-4 -569h494l-1 -95h-493l-4 -587h568l14 214h97l-13 -304h-944l1 90h162l8 1251h-177v90h932zM855 1792l-362 -305l-73 55l362 314z" />
<glyph unicode="&#xca;" horiz-adv-x="1176" d="M1030 1145h-96l1 196h-543l-4 -569h494l-1 -95h-493l-4 -587h568l14 214h97l-13 -304h-944l1 90h162l8 1251h-177v90h932zM889 1548l-72 -61l-231 262l-234 -262l-67 61l257 282h96z" />
<glyph unicode="&#xcb;" horiz-adv-x="1176" d="M1030 1145h-96l1 196h-543l-4 -569h494l-1 -95h-493l-4 -587h568l14 214h97l-13 -304h-944l1 90h162l8 1251h-177v90h932zM447 1657q0 -47 -26.5 -74t-65.5 -27q-37 0 -62 25.5t-25 67.5q0 44 26 71t64 27q39 0 64 -25.5t25 -64.5zM884 1655q0 -46 -24.5 -72t-64.5 -26 q-42 0 -66 24t-24 66q0 44 26 71.5t66 27.5q38 0 62.5 -25t24.5 -66z" />
<glyph unicode="&#xcc;" horiz-adv-x="684" d="M576 1431l-1 -90h-170l-9 -1251h180l-1 -90h-459l1 90h164l8 1251h-180l1 90h466zM72 1789l78 65l356 -307l-74 -60z" />
<glyph unicode="&#xcd;" horiz-adv-x="684" d="M576 1431l-1 -90h-170l-9 -1251h180l-1 -90h-459l1 90h164l8 1251h-180l1 90h466zM602 1792l-362 -305l-73 55l362 314z" />
<glyph unicode="&#xce;" horiz-adv-x="684" d="M576 1431l-1 -90h-170l-9 -1251h180l-1 -90h-459l1 90h164l8 1251h-180l1 90h466zM633 1548l-72 -61l-231 262l-234 -262l-67 61l257 282h96z" />
<glyph unicode="&#xcf;" horiz-adv-x="684" d="M576 1431l-1 -90h-170l-9 -1251h180l-1 -90h-459l1 90h164l8 1251h-180l1 90h466zM205 1657q0 -47 -26.5 -74t-65.5 -27q-37 0 -62 25.5t-25 67.5q0 44 26 71t64 27q39 0 64 -25.5t25 -64.5zM642 1655q0 -46 -24.5 -72t-64.5 -26q-42 0 -66 24t-24 66q0 44 26 71.5 t66 27.5q38 0 62.5 -25t24.5 -66z" />
<glyph unicode="&#xd0;" horiz-adv-x="1555" d="M95 671v90h176l4 580h-189v90h641q91 0 196 -15t202.5 -66.5t170 -137.5t112.5 -207q40 -122 40 -267q0 -205 -80.5 -364t-198 -243t-254.5 -113q-88 -18 -272 -18h-548v90h172l4 581h-176zM386 761h440v-90h-440l-4 -581h243q185 0 292 28t203.5 108.5t152 210.5 t55.5 293q0 152 -49.5 275t-139 202t-215.5 106q-127 28 -331 28h-203z" />
<glyph unicode="&#xd1;" horiz-adv-x="1631" d="M1568 1431l-1 -90h-164l-9 -1341h-109l-914 1254l-9 -1164h183v-90h-463l1 90h170l9 1251h-199l1 90h309l914 -1255l7 1165h-193v90h467zM1104 1755l74 -56q-87 -133 -208 -133q-36 0 -65 10q-30 11 -83 44t-73 41q-21 8 -40 8q-35 0 -65.5 -20.5t-68.5 -75.5l-83 50 q78 144 214 144q38 0 69 -10q32 -11 75 -39q58 -37 79 -45q21 -9 43 -9q32 0 56.5 15t75.5 76z" />
<glyph unicode="&#xd2;" horiz-adv-x="1552" d="M1437 773q0 -217 -42 -356t-124 -239t-179 -151q-132 -69 -312 -69q-295 0 -469 187q-195 210 -195 562q0 355 190.5 557t486.5 202q136 0 237 -38.5t176.5 -105t128.5 -157t77 -201.5q25 -112 25 -191zM1316 754q-2 136 -51 268q-31 86 -85.5 163.5t-153 128.5 t-238.5 51q-178 0 -301.5 -86t-187 -233.5t-63.5 -330.5q0 -263 126 -445q145 -209 419 -209q105 0 186.5 30t150.5 91.5t115 148t65 184t18 179.5v60zM520 1791l78 65l356 -307l-74 -60z" />
<glyph unicode="&#xd3;" horiz-adv-x="1552" d="M1437 773q0 -217 -42 -356t-124 -239t-179 -151q-132 -69 -312 -69q-295 0 -469 187q-195 210 -195 562q0 355 190.5 557t486.5 202q136 0 237 -38.5t176.5 -105t128.5 -157t77 -201.5q25 -112 25 -191zM1316 754q-2 136 -51 268q-31 86 -85.5 163.5t-153 128.5 t-238.5 51q-178 0 -301.5 -86t-187 -233.5t-63.5 -330.5q0 -263 126 -445q145 -209 419 -209q105 0 186.5 30t150.5 91.5t115 148t65 184t18 179.5v60zM1047 1794l-362 -305l-73 55l362 314z" />
<glyph unicode="&#xd4;" horiz-adv-x="1552" d="M1437 773q0 -217 -42 -356t-124 -239t-179 -151q-132 -69 -312 -69q-295 0 -469 187q-195 210 -195 562q0 355 190.5 557t486.5 202q136 0 237 -38.5t176.5 -105t128.5 -157t77 -201.5q25 -112 25 -191zM1316 754q-2 136 -51 268q-31 86 -85.5 163.5t-153 128.5 t-238.5 51q-178 0 -301.5 -86t-187 -233.5t-63.5 -330.5q0 -263 126 -445q145 -209 419 -209q105 0 186.5 30t150.5 91.5t115 148t65 184t18 179.5v60zM1081 1550l-72 -61l-231 262l-234 -262l-67 61l257 282h96z" />
<glyph unicode="&#xd5;" horiz-adv-x="1552" d="M1437 773q0 -217 -42 -356t-124 -239t-179 -151q-132 -69 -312 -69q-295 0 -469 187q-195 210 -195 562q0 355 190.5 557t486.5 202q136 0 237 -38.5t176.5 -105t128.5 -157t77 -201.5q25 -112 25 -191zM1316 754q-2 136 -51 268q-31 86 -85.5 163.5t-153 128.5 t-238.5 51q-178 0 -301.5 -86t-187 -233.5t-63.5 -330.5q0 -263 126 -445q145 -209 419 -209q105 0 186.5 30t150.5 91.5t115 148t65 184t18 179.5v60zM1070 1756l74 -56q-87 -133 -208 -133q-36 0 -65 10q-30 11 -83 44t-73 41q-21 8 -40 8q-35 0 -65.5 -20.5t-68.5 -75.5 l-83 50q78 144 214 144q38 0 69 -10q32 -11 75 -39q58 -37 79 -45q21 -9 43 -9q32 0 56.5 15t75.5 76z" />
<glyph unicode="&#xd6;" horiz-adv-x="1552" d="M1437 773q0 -217 -42 -356t-124 -239t-179 -151q-132 -69 -312 -69q-295 0 -469 187q-195 210 -195 562q0 355 190.5 557t486.5 202q136 0 237 -38.5t176.5 -105t128.5 -157t77 -201.5q25 -112 25 -191zM1316 754q-2 136 -51 268q-31 86 -85.5 163.5t-153 128.5 t-238.5 51q-178 0 -301.5 -86t-187 -233.5t-63.5 -330.5q0 -263 126 -445q145 -209 419 -209q105 0 186.5 30t150.5 91.5t115 148t65 184t18 179.5v60zM640 1659q0 -47 -26.5 -74t-65.5 -27q-37 0 -62 25.5t-25 67.5q0 44 26 71t64 27q39 0 64 -25.5t25 -64.5zM1077 1657 q0 -46 -24.5 -72t-64.5 -26q-42 0 -66 24t-24 66q0 44 26 71.5t66 27.5q38 0 62.5 -25t24.5 -66z" />
<glyph unicode="&#xd7;" horiz-adv-x="1214" d="M124 90l404 403l-404 404l76 75l402 -404l404 404l76 -75l-404 -403l403 -404l-75 -75l-403 404l-403 -404z" />
<glyph unicode="&#xd8;" horiz-adv-x="1552" d="M1359 1554l-146 -237q69 -64 110 -128q54 -87 90 -214q36 -128 36 -259q0 -208 -85.5 -395.5t-238 -277t-353.5 -89.5q-94 0 -170.5 20.5t-165.5 68.5l-148 -246l-85 51l152 248q-76 74 -107 117q-42 57 -74 140t-48 169t-16 178q0 209 80 388.5t236.5 275t366.5 95.5 q110 0 203 -27q68 -20 136 -61l144 236zM1075 1275q-70 42 -138 62t-150 20q-163 0 -294 -81t-198 -235.5t-67 -335.5q0 -118 31 -227q31 -110 82 -190q32 -50 79 -91zM494 139q70 -44 124 -60q73 -22 156 -22q168 0 294 78.5t194.5 234t68.5 343.5q0 169 -51 302.5 t-131 197.5z" />
<glyph unicode="&#xd9;" horiz-adv-x="1556" d="M1478 1431v-90h-163l-5 -730q-1 -182 -9 -241q-14 -101 -56 -175.5t-111 -124.5t-162 -72t-204 -22q-161 0 -265 42t-157 104t-75 139q-23 77 -23 220l2 213l4 647h-180v90h465l-1 -90h-169l-5 -658l-2 -134q0 -189 25 -260t74 -115.5t124.5 -70.5t196.5 -26 q149 0 236.5 44t125.5 106t49 175q6 70 10 363l4 576h-185v90h456zM516 1789l78 65l356 -307l-74 -60z" />
<glyph unicode="&#xda;" horiz-adv-x="1556" d="M1478 1431v-90h-163l-5 -730q-1 -182 -9 -241q-14 -101 -56 -175.5t-111 -124.5t-162 -72t-204 -22q-161 0 -265 42t-157 104t-75 139q-23 77 -23 220l2 213l4 647h-180v90h465l-1 -90h-169l-5 -658l-2 -134q0 -189 25 -260t74 -115.5t124.5 -70.5t196.5 -26 q149 0 236.5 44t125.5 106t49 175q6 70 10 363l4 576h-185v90h456zM1044 1792l-362 -305l-73 55l362 314z" />
<glyph unicode="&#xdb;" horiz-adv-x="1556" d="M1478 1431v-90h-163l-5 -730q-1 -182 -9 -241q-14 -101 -56 -175.5t-111 -124.5t-162 -72t-204 -22q-161 0 -265 42t-157 104t-75 139q-23 77 -23 220l2 213l4 647h-180v90h465l-1 -90h-169l-5 -658l-2 -134q0 -189 25 -260t74 -115.5t124.5 -70.5t196.5 -26 q149 0 236.5 44t125.5 106t49 175q6 70 10 363l4 576h-185v90h456zM1078 1548l-72 -61l-231 262l-234 -262l-67 61l257 282h96z" />
<glyph unicode="&#xdc;" horiz-adv-x="1556" d="M1478 1431v-90h-163l-5 -730q-1 -182 -9 -241q-14 -101 -56 -175.5t-111 -124.5t-162 -72t-204 -22q-161 0 -265 42t-157 104t-75 139q-23 77 -23 220l2 213l4 647h-180v90h465l-1 -90h-169l-5 -658l-2 -134q0 -189 25 -260t74 -115.5t124.5 -70.5t196.5 -26 q149 0 236.5 44t125.5 106t49 175q6 70 10 363l4 576h-185v90h456zM636 1657q0 -47 -26.5 -74t-65.5 -27q-37 0 -62 25.5t-25 67.5q0 44 26 71t64 27q39 0 64 -25.5t25 -64.5zM1073 1655q0 -46 -24.5 -72t-64.5 -26q-42 0 -66 24t-24 66q0 44 26 71.5t66 27.5q38 0 62.5 -25 t24.5 -66z" />
<glyph unicode="&#xdd;" horiz-adv-x="1441" d="M1431 1431v-90h-137l-500 -701l-4 -550h178l-1 -90h-459v90h167l4 548l-512 703h-158l1 90h445l-1 -90h-146l433 -602l431 602h-183v90h442zM987 1792l-362 -305l-73 55l362 314z" />
<glyph unicode="&#xde;" d="M402 1147h101q165 0 228 -12q103 -21 170.5 -70.5t107.5 -132.5t40 -184q0 -125 -63.5 -230.5t-171.5 -152.5t-312 -47h-105l-2 -228h180v-90h-459v90h164l9 1251h-182v90h467v-90h-170zM402 1057l-5 -643h106q156 0 242 32.5t135.5 110.5t49.5 191q0 143 -93 226.5 t-290 83.5l-48 -1h-97z" />
<glyph unicode="&#xdf;" horiz-adv-x="1403" d="M522 90v-90h-411v90h166l6 872h-204v90h204q3 134 11 180q16 85 55.5 152t102 113t140.5 68.5t186 22.5q215 0 320.5 -87t105.5 -211q0 -70 -30.5 -128t-81.5 -100q-34 -28 -145 -88t-142 -83t-49.5 -58.5t-18.5 -70.5q0 -55 46 -93q46 -39 176 -77q131 -39 194 -76 q64 -37 98 -96.5t34 -134.5q0 -128 -98 -215.5t-284 -87.5q-135 0 -274 42l-3 262h95l2 -190q106 -24 188 -24q133 0 202 60.5t69 144.5q0 66 -43 115q-43 50 -182 90q-139 41 -197 72q-59 32 -92 86.5t-33 120.5q0 81 48 143.5t184 132.5q104 54 143.5 84t63.5 71.5 t24 91.5q0 56 -34 106.5t-106.5 80.5t-177.5 30q-84 0 -153.5 -22t-115 -58.5t-73.5 -83t-38.5 -114.5t-10.5 -158l-9 -975h142z" />
<glyph unicode="&#xe0;" horiz-adv-x="1176" d="M1081 90v-90h-274l14 219q-33 -76 -62 -113q-41 -54 -111.5 -91t-171.5 -37q-156 0 -240 80t-84 209q0 73 26 127.5t76.5 94t128.5 61.5q79 22 201 30l235 11q2 58 2 87q0 100 -13 150q-14 51 -44.5 82.5t-88.5 52.5t-138 21q-57 0 -122.5 -11.5t-117.5 -33.5l-5 -176 h-100l4 243q84 37 178 55t171 18q118 0 199 -34.5t117.5 -83t49.5 -105.5q14 -57 14 -158q0 -69 -16 -608h172zM816 502q-344 -8 -433 -49q-120 -55 -120 -179q0 -88 60.5 -145t167.5 -57q105 0 183 58.5t107.5 140.5t34.5 231zM286 1546l78 65l356 -307l-74 -60z" />
<glyph unicode="&#xe1;" horiz-adv-x="1176" d="M1081 90v-90h-274l14 219q-33 -76 -62 -113q-41 -54 -111.5 -91t-171.5 -37q-156 0 -240 80t-84 209q0 73 26 127.5t76.5 94t128.5 61.5q79 22 201 30l235 11q2 58 2 87q0 100 -13 150q-14 51 -44.5 82.5t-88.5 52.5t-138 21q-57 0 -122.5 -11.5t-117.5 -33.5l-5 -176 h-100l4 243q84 37 178 55t171 18q118 0 199 -34.5t117.5 -83t49.5 -105.5q14 -57 14 -158q0 -69 -16 -608h172zM816 502q-344 -8 -433 -49q-120 -55 -120 -179q0 -88 60.5 -145t167.5 -57q105 0 183 58.5t107.5 140.5t34.5 231zM813 1549l-362 -305l-73 55l362 314z" />
<glyph unicode="&#xe2;" horiz-adv-x="1176" d="M1081 90v-90h-274l14 219q-33 -76 -62 -113q-41 -54 -111.5 -91t-171.5 -37q-156 0 -240 80t-84 209q0 73 26 127.5t76.5 94t128.5 61.5q79 22 201 30l235 11q2 58 2 87q0 100 -13 150q-14 51 -44.5 82.5t-88.5 52.5t-138 21q-57 0 -122.5 -11.5t-117.5 -33.5l-5 -176 h-100l4 243q84 37 178 55t171 18q118 0 199 -34.5t117.5 -83t49.5 -105.5q14 -57 14 -158q0 -69 -16 -608h172zM816 502q-344 -8 -433 -49q-120 -55 -120 -179q0 -88 60.5 -145t167.5 -57q105 0 183 58.5t107.5 140.5t34.5 231zM848 1306l-72 -61l-231 262l-234 -262l-67 61 l257 282h96z" />
<glyph unicode="&#xe3;" horiz-adv-x="1176" d="M1081 90v-90h-274l14 219q-33 -76 -62 -113q-41 -54 -111.5 -91t-171.5 -37q-156 0 -240 80t-84 209q0 73 26 127.5t76.5 94t128.5 61.5q79 22 201 30l235 11q2 58 2 87q0 100 -13 150q-14 51 -44.5 82.5t-88.5 52.5t-138 21q-57 0 -122.5 -11.5t-117.5 -33.5l-5 -176 h-100l4 243q84 37 178 55t171 18q118 0 199 -34.5t117.5 -83t49.5 -105.5q14 -57 14 -158q0 -69 -16 -608h172zM816 502q-344 -8 -433 -49q-120 -55 -120 -179q0 -88 60.5 -145t167.5 -57q105 0 183 58.5t107.5 140.5t34.5 231zM837 1511l74 -56q-87 -133 -208 -133 q-36 0 -65 10q-30 11 -83 44t-73 41q-21 8 -40 8q-35 0 -65.5 -20.5t-68.5 -75.5l-83 50q78 144 214 144q38 0 69 -10q32 -11 75 -39q58 -37 79 -45q21 -9 43 -9q32 0 56.5 15t75.5 76z" />
<glyph unicode="&#xe4;" horiz-adv-x="1176" d="M1081 90v-90h-274l14 219q-33 -76 -62 -113q-41 -54 -111.5 -91t-171.5 -37q-156 0 -240 80t-84 209q0 73 26 127.5t76.5 94t128.5 61.5q79 22 201 30l235 11q2 58 2 87q0 100 -13 150q-14 51 -44.5 82.5t-88.5 52.5t-138 21q-57 0 -122.5 -11.5t-117.5 -33.5l-5 -176 h-100l4 243q84 37 178 55t171 18q118 0 199 -34.5t117.5 -83t49.5 -105.5q14 -57 14 -158q0 -69 -16 -608h172zM816 502q-344 -8 -433 -49q-120 -55 -120 -179q0 -88 60.5 -145t167.5 -57q105 0 183 58.5t107.5 140.5t34.5 231zM406 1415q0 -47 -26.5 -74t-65.5 -27 q-37 0 -62 25.5t-25 67.5q0 44 26 71t64 27q39 0 64 -25.5t25 -64.5zM843 1413q0 -46 -24.5 -72t-64.5 -26q-42 0 -66 24t-24 66q0 44 26 71.5t66 27.5q38 0 62.5 -25t24.5 -66z" />
<glyph unicode="&#xe5;" horiz-adv-x="1176" d="M1081 90v-90h-274l14 219q-33 -76 -62 -113q-41 -54 -111.5 -91t-171.5 -37q-156 0 -240 80t-84 209q0 73 26 127.5t76.5 94t128.5 61.5q79 22 201 30l235 11q2 58 2 87q0 100 -13 150q-14 51 -44.5 82.5t-88.5 52.5t-138 21q-57 0 -122.5 -11.5t-117.5 -33.5l-5 -176 h-100l4 243q84 37 178 55t171 18q118 0 199 -34.5t117.5 -83t49.5 -105.5q14 -57 14 -158q0 -69 -16 -608h172zM816 502q-344 -8 -433 -49q-120 -55 -120 -179q0 -88 60.5 -145t167.5 -57q105 0 183 58.5t107.5 140.5t34.5 231zM752 1432q0 -88 -52.5 -141.5t-131.5 -53.5 q-82 0 -134.5 52t-52.5 133q0 90 58.5 139.5t131.5 49.5q79 0 130 -50.5t51 -128.5zM666 1439q0 30 -23.5 61.5t-71.5 31.5q-47 0 -76 -30t-29 -83q0 -49 27.5 -77.5t70.5 -28.5q48 0 75 29.5t27 96.5z" />
<glyph unicode="&#xe6;" horiz-adv-x="1782" d="M1612 152v-105q-42 -26 -131 -47.5t-178 -21.5q-102 0 -183.5 25.5t-133 65t-82.5 91.5q-19 31 -34 85q-36 -116 -138 -190t-248 -74q-133 0 -240 72.5t-107 223.5q0 76 27.5 131.5t78 94t136.5 57.5q86 20 246 29l205 9q-3 142 -15.5 197t-48.5 94.5t-102 65.5t-159 26 q-117 0 -236 -41l-11 -182h-91l6 254q146 61 324 61q114 0 201 -28q88 -28 139 -85q38 -42 57 -107q21 61 53 98q49 56 127 88t176 32q193 0 305.5 -128.5t110.5 -422.5l-732 -10q-1 -63 -1 -79q0 -87 19 -139q27 -75 85 -130q44 -41 111.5 -63.5t154.5 -22.5q154 0 309 76z M1560 610q-10 192 -94 279t-227 87q-174 0 -257 -128q-51 -80 -49 -248zM829 507l-263 -13q-127 -9 -190 -32.5t-94.5 -69t-31.5 -110.5q0 -87 65 -145.5t185 -58.5q103 0 181.5 54t112.5 137.5t35 237.5z" />
<glyph unicode="&#xe7;" horiz-adv-x="1062" d="M947 1023l1 -254h-98l-3 181q-87 35 -200 35q-192 0 -304 -117t-112 -333q0 -124 41 -228q30 -75 85 -127.5t123.5 -78t167.5 -25.5q75 0 144.5 13.5t153.5 44.5v-104q-138 -50 -295 -52v-110q88 0 133 -39.5t45 -101.5q0 -73 -54.5 -119.5t-171.5 -46.5q-97 0 -177 32 l13 81q80 -31 164 -31q65 0 91.5 21t26.5 55t-27.5 54.5t-122.5 23.5v184q-206 16 -329.5 159t-123.5 396q0 294 185 438q137 106 341 106q65 0 130.5 -11.5t172.5 -45.5z" />
<glyph unicode="&#xe8;" horiz-adv-x="1100" d="M951 155l-4 -102q-140 -81 -337 -81q-233 0 -370 143t-137 408q0 123 30.5 227t89.5 174.5t132 108.5q101 51 221 51q111 0 189 -42.5t125 -107t69 -139.5q31 -104 36 -260h-778q-1 -17 -1 -26q0 -139 51.5 -242.5t150.5 -151.5t213 -48q169 0 320 88zM888 627 q-10 122 -45 198q-36 77 -109.5 121.5t-168.5 44.5q-142 0 -237 -94.5t-106 -269.5h666zM313 1544l78 65l356 -307l-74 -60z" />
<glyph unicode="&#xe9;" horiz-adv-x="1100" d="M951 155l-4 -102q-140 -81 -337 -81q-233 0 -370 143t-137 408q0 123 30.5 227t89.5 174.5t132 108.5q101 51 221 51q111 0 189 -42.5t125 -107t69 -139.5q31 -104 36 -260h-778q-1 -17 -1 -26q0 -139 51.5 -242.5t150.5 -151.5t213 -48q169 0 320 88zM888 627 q-10 122 -45 198q-36 77 -109.5 121.5t-168.5 44.5q-142 0 -237 -94.5t-106 -269.5h666zM840 1548l-362 -305l-73 55l362 314z" />
<glyph unicode="&#xea;" horiz-adv-x="1100" d="M951 155l-4 -102q-140 -81 -337 -81q-233 0 -370 143t-137 408q0 123 30.5 227t89.5 174.5t132 108.5q101 51 221 51q111 0 189 -42.5t125 -107t69 -139.5q31 -104 36 -260h-778q-1 -17 -1 -26q0 -139 51.5 -242.5t150.5 -151.5t213 -48q169 0 320 88zM888 627 q-10 122 -45 198q-36 77 -109.5 121.5t-168.5 44.5q-142 0 -237 -94.5t-106 -269.5h666zM874 1304l-72 -61l-231 262l-234 -262l-67 61l257 282h96z" />
<glyph unicode="&#xeb;" horiz-adv-x="1100" d="M951 155l-4 -102q-140 -81 -337 -81q-233 0 -370 143t-137 408q0 123 30.5 227t89.5 174.5t132 108.5q101 51 221 51q111 0 189 -42.5t125 -107t69 -139.5q31 -104 36 -260h-778q-1 -17 -1 -26q0 -139 51.5 -242.5t150.5 -151.5t213 -48q169 0 320 88zM888 627 q-10 122 -45 198q-36 77 -109.5 121.5t-168.5 44.5q-142 0 -237 -94.5t-106 -269.5h666zM433 1413q0 -47 -26.5 -74t-65.5 -27q-37 0 -62 25.5t-25 67.5q0 44 26 71t64 27q39 0 64 -25.5t25 -64.5zM870 1411q0 -46 -24.5 -72t-64.5 -26q-42 0 -66 24t-24 66q0 44 26 71.5 t66 27.5q38 0 62.5 -25t24.5 -66z" />
<glyph unicode="&#xec;" horiz-adv-x="607" d="M372 1052l-13 -962h180v-90h-469v90h179l14 872h-215v90h324zM43 1545l78 65l356 -307l-74 -60z" />
<glyph unicode="&#xed;" horiz-adv-x="607" d="M372 1052l-13 -962h180v-90h-469v90h179l14 872h-215v90h324zM570 1549l-362 -305l-73 55l362 314z" />
<glyph unicode="&#xee;" horiz-adv-x="607" d="M372 1052l-13 -962h180v-90h-469v90h179l14 872h-215v90h324zM604 1305l-72 -61l-231 262l-234 -262l-67 61l257 282h96z" />
<glyph unicode="&#xef;" horiz-adv-x="607" d="M372 1052l-13 -962h180v-90h-469v90h179l14 872h-215v90h324zM162 1414q0 -47 -26.5 -74t-65.5 -27q-37 0 -62 25.5t-25 67.5q0 44 26 71t64 27q39 0 64 -25.5t25 -64.5zM599 1412q0 -46 -24.5 -72t-64.5 -26q-42 0 -66 24t-24 66q0 44 26 71.5t66 27.5q38 0 62.5 -25 t24.5 -66z" />
<glyph unicode="&#xf0;" horiz-adv-x="1180" d="M334 1306l187 112q-57 55 -152 114l90 52q49 -29 144 -113l188 113l61 -61l-183 -113q153 -159 220 -262q94 -141 141.5 -298t47.5 -309q0 -239 -120 -404.5t-367 -165.5q-217 0 -351.5 143t-134.5 392q0 140 40 245t102 169t133 100q107 54 218 54q95 0 184 -43 q57 -28 116 -82q-69 129 -136 217t-177 193l-189 -112zM218 522q0 -135 38.5 -233.5t125 -159t213.5 -60.5q162 0 256 107q115 131 115 351q0 126 -46 234t-129.5 161t-189.5 53q-111 0 -200 -56t-136 -162.5t-47 -234.5z" />
<glyph unicode="&#xf1;" horiz-adv-x="1327" d="M88 1052h295l-9 -216q41 88 88.5 136.5t125.5 78.5t165 30q96 0 168.5 -37t111 -96.5t52.5 -139.5q11 -60 9 -190l-7 -528h170v-90h-426v90h147l7 569q2 113 -21.5 177.5t-83 104t-150.5 39.5q-99 0 -181 -46.5t-128 -143.5t-47 -221l-4 -479h171v-90h-430v90h150l12 872 h-185v90zM953 1511l74 -56q-87 -133 -208 -133q-36 0 -65 10q-30 11 -83 44t-73 41q-21 8 -40 8q-35 0 -65.5 -20.5t-68.5 -75.5l-83 50q78 144 214 144q38 0 69 -10q32 -11 75 -39q58 -37 79 -45q21 -9 43 -9q32 0 56.5 15t75.5 76z" />
<glyph unicode="&#xf2;" horiz-adv-x="1176" d="M1074 564q0 -294 -144 -456q-122 -137 -343 -137q-218 0 -352 143t-134 398q0 268 143.5 422t358.5 154q139 0 246 -68t166 -194.5t59 -261.5zM962 571q0 59 -22.5 139.5t-66 142t-113 99t-163.5 37.5q-167 0 -275 -120.5t-108 -353.5q0 -218 103.5 -332t273.5 -114 q63 0 114.5 15.5t94 47t82.5 90.5t60 136.5t20 139.5v73zM328 1546l78 65l356 -307l-74 -60z" />
<glyph unicode="&#xf3;" horiz-adv-x="1176" d="M1074 564q0 -294 -144 -456q-122 -137 -343 -137q-218 0 -352 143t-134 398q0 268 143.5 422t358.5 154q139 0 246 -68t166 -194.5t59 -261.5zM962 571q0 59 -22.5 139.5t-66 142t-113 99t-163.5 37.5q-167 0 -275 -120.5t-108 -353.5q0 -218 103.5 -332t273.5 -114 q63 0 114.5 15.5t94 47t82.5 90.5t60 136.5t20 139.5v73zM855 1549l-362 -305l-73 55l362 314z" />
<glyph unicode="&#xf4;" horiz-adv-x="1176" d="M1074 564q0 -294 -144 -456q-122 -137 -343 -137q-218 0 -352 143t-134 398q0 268 143.5 422t358.5 154q139 0 246 -68t166 -194.5t59 -261.5zM962 571q0 59 -22.5 139.5t-66 142t-113 99t-163.5 37.5q-167 0 -275 -120.5t-108 -353.5q0 -218 103.5 -332t273.5 -114 q63 0 114.5 15.5t94 47t82.5 90.5t60 136.5t20 139.5v73zM889 1306l-72 -61l-231 262l-234 -262l-67 61l257 282h96z" />
<glyph unicode="&#xf5;" horiz-adv-x="1176" d="M1074 564q0 -294 -144 -456q-122 -137 -343 -137q-218 0 -352 143t-134 398q0 268 143.5 422t358.5 154q139 0 246 -68t166 -194.5t59 -261.5zM962 571q0 59 -22.5 139.5t-66 142t-113 99t-163.5 37.5q-167 0 -275 -120.5t-108 -353.5q0 -218 103.5 -332t273.5 -114 q63 0 114.5 15.5t94 47t82.5 90.5t60 136.5t20 139.5v73zM878 1511l74 -56q-87 -133 -208 -133q-36 0 -65 10q-30 11 -83 44t-73 41q-21 8 -40 8q-35 0 -65.5 -20.5t-68.5 -75.5l-83 50q78 144 214 144q38 0 69 -10q32 -11 75 -39q58 -37 79 -45q21 -9 43 -9q32 0 56.5 15 t75.5 76z" />
<glyph unicode="&#xf6;" horiz-adv-x="1176" d="M1074 564q0 -294 -144 -456q-122 -137 -343 -137q-218 0 -352 143t-134 398q0 268 143.5 422t358.5 154q139 0 246 -68t166 -194.5t59 -261.5zM962 571q0 59 -22.5 139.5t-66 142t-113 99t-163.5 37.5q-167 0 -275 -120.5t-108 -353.5q0 -218 103.5 -332t273.5 -114 q63 0 114.5 15.5t94 47t82.5 90.5t60 136.5t20 139.5v73zM448 1415q0 -47 -26.5 -74t-65.5 -27q-37 0 -62 25.5t-25 67.5q0 44 26 71t64 27q39 0 64 -25.5t25 -64.5zM885 1413q0 -46 -24.5 -72t-64.5 -26q-42 0 -66 24t-24 66q0 44 26 71.5t66 27.5q38 0 62.5 -25t24.5 -66z " />
<glyph unicode="&#xf7;" horiz-adv-x="1214" d="M607 952q40 0 68 -28t28 -68t-28 -68t-68 -28t-68 28t-28 68t28 68t68 28zM98 443v99h1018v-99h-1018zM607 225q40 0 68 -28t28 -68t-28 -68t-68 -28t-68 28t-28 68t28 68t68 28z" />
<glyph unicode="&#xf8;" horiz-adv-x="1176" d="M1029 1177l-121 -202q86 -70 133.5 -184t47.5 -255q0 -151 -56.5 -283.5t-171.5 -207.5t-270 -75q-141 0 -246 58l-121 -203l-72 47l120 202q-45 36 -77 79.5t-56 105t-36 126.5t-12 135q0 250 151 417q130 145 357 145q68 0 124.5 -13t117.5 -42l118 196zM788 942 q-57 25 -99.5 35t-92.5 10q-115 0 -203 -54t-139 -163t-51 -251q0 -117 33 -205.5t93 -145.5zM397 115q95 -50 193 -50q87 0 176.5 42t152 149t62.5 279q0 88 -20 161t-54 127q-20 32 -53 59z" />
<glyph unicode="&#xf9;" horiz-adv-x="1327" d="M1081 1052l-12 -962h170v-90h-281l10 219q-49 -111 -119 -167q-100 -81 -243 -81q-89 0 -156 28t-111 77.5t-64 105.5q-28 81 -26 220l12 560h-183v90h292l-11 -605q-3 -136 23 -212q27 -77 90.5 -120t154.5 -43q72 0 130.5 26t100 71t68 106t34.5 142q9 82 9 160l3 385 h-183v90h292zM402 1546l78 65l356 -307l-74 -60z" />
<glyph unicode="&#xfa;" horiz-adv-x="1327" d="M1081 1052l-12 -962h170v-90h-281l10 219q-49 -111 -119 -167q-100 -81 -243 -81q-89 0 -156 28t-111 77.5t-64 105.5q-28 81 -26 220l12 560h-183v90h292l-11 -605q-3 -136 23 -212q27 -77 90.5 -120t154.5 -43q72 0 130.5 26t100 71t68 106t34.5 142q9 82 9 160l3 385 h-183v90h292zM930 1549l-362 -305l-73 55l362 314z" />
<glyph unicode="&#xfb;" horiz-adv-x="1327" d="M1081 1052l-12 -962h170v-90h-281l10 219q-49 -111 -119 -167q-100 -81 -243 -81q-89 0 -156 28t-111 77.5t-64 105.5q-28 81 -26 220l12 560h-183v90h292l-11 -605q-3 -136 23 -212q27 -77 90.5 -120t154.5 -43q72 0 130.5 26t100 71t68 106t34.5 142q9 82 9 160l3 385 h-183v90h292zM963 1306l-72 -61l-231 262l-234 -262l-67 61l257 282h96z" />
<glyph unicode="&#xfc;" horiz-adv-x="1327" d="M1081 1052l-12 -962h170v-90h-281l10 219q-49 -111 -119 -167q-100 -81 -243 -81q-89 0 -156 28t-111 77.5t-64 105.5q-28 81 -26 220l12 560h-183v90h292l-11 -605q-3 -136 23 -212q27 -77 90.5 -120t154.5 -43q72 0 130.5 26t100 71t68 106t34.5 142q9 82 9 160l3 385 h-183v90h292zM522 1414q0 -47 -26.5 -74t-65.5 -27q-37 0 -62 25.5t-25 67.5q0 44 26 71t64 27q39 0 64 -25.5t25 -64.5zM959 1412q0 -46 -24.5 -72t-64.5 -26q-42 0 -66 24t-24 66q0 44 26 71.5t66 27.5q38 0 62.5 -25t24.5 -66z" />
<glyph unicode="&#xfd;" d="M422 1052v-90h-149l310 -840l292 840h-159v90h392v-90h-126l-338 -945q-64 -180 -136 -306q-51 -92 -100.5 -140t-118.5 -78t-162 -30q-50 0 -116 15v100q74 -14 106 -14q80 0 138.5 26t108 81.5t89.5 137.5q2 4 68 164l-373 989h-137v90h411zM836 1549l-362 -305l-73 55 l362 314z" />
<glyph unicode="&#xfe;" horiz-adv-x="1252" d="M349 16v-445h191v-93h-468v93h168l13 1770h-198v90h311l-10 -587q49 85 86 122q52 52 125.5 80.5t161.5 28.5q182 0 301.5 -128t119.5 -362q0 -167 -66.5 -311.5t-212.5 -228.5q-112 -65 -275 -65q-141 0 -247 36zM355 123q109 -47 246 -47q107 0 181 30t131 90t91 157 q34 98 34 223q0 192 -93 295t-234 103q-102 0 -189 -53.5t-126 -150.5q-39 -98 -40 -272z" />
<glyph unicode="&#xff;" d="M422 1052v-90h-149l310 -840l292 840h-159v90h392v-90h-126l-338 -945q-64 -180 -136 -306q-51 -92 -100.5 -140t-118.5 -78t-162 -30q-50 0 -116 15v100q74 -14 106 -14q80 0 138.5 26t108 81.5t89.5 137.5q2 4 68 164l-373 989h-137v90h411zM429 1414q0 -47 -26.5 -74 t-65.5 -27q-37 0 -62 25.5t-25 67.5q0 44 26 71t64 27q39 0 64 -25.5t25 -64.5zM866 1412q0 -46 -24.5 -72t-64.5 -26q-42 0 -66 24t-24 66q0 44 26 71.5t66 27.5q38 0 62.5 -25t24.5 -66z" />
<glyph unicode="&#x106;" horiz-adv-x="1403" d="M1286 1099h-105v213l-112 23q-30 6 -71 10q-58 6 -111 6q-152 0 -270.5 -45.5t-194.5 -122.5t-118 -176q-58 -134 -58 -296q0 -155 49 -275.5t130.5 -196.5t190 -116.5t269.5 -40.5q121 0 274 33l8 217h107l-9 -295q-177 -54 -391 -54q-176 0 -308 44 q-133 45 -226.5 132.5t-144.5 202.5q-70 157 -70 350q0 315 199.5 525.5t559.5 210.5q215 0 408 -67zM1110 1795l-362 -305l-73 55l362 314z" />
<glyph unicode="&#x107;" horiz-adv-x="1062" d="M948 769h-98l-3 181q-87 35 -200 35q-192 0 -304 -117t-112 -333q0 -124 41 -228q30 -75 85 -127.5t123.5 -78t167.5 -25.5q75 0 144.5 13.5t153.5 44.5v-104q-145 -52 -309 -52q-157 0 -272 59.5t-181 188.5t-66 310q0 294 185 438q137 106 341 106q65 0 130.5 -11.5 t172.5 -45.5zM870 1548l-362 -305l-73 55l362 314z" />
<glyph unicode="&#x10c;" horiz-adv-x="1403" d="M1286 1099h-105v213l-112 23q-30 6 -71 10q-58 6 -111 6q-152 0 -270.5 -45.5t-194.5 -122.5t-118 -176q-58 -134 -58 -296q0 -155 49 -275.5t130.5 -196.5t190 -116.5t269.5 -40.5q121 0 274 33l8 217h107l-9 -295q-177 -54 -391 -54q-176 0 -308 44 q-133 45 -226.5 132.5t-144.5 202.5q-70 157 -70 350q0 315 199.5 525.5t559.5 210.5q215 0 408 -67zM544 1801l73 62l231 -262l233 262l67 -62l-257 -282h-95z" />
<glyph unicode="&#x10d;" horiz-adv-x="1062" d="M948 769h-98l-3 181q-87 35 -200 35q-192 0 -304 -117t-112 -333q0 -124 41 -228q30 -75 85 -127.5t123.5 -78t167.5 -25.5q75 0 144.5 13.5t153.5 44.5v-104q-145 -52 -309 -52q-157 0 -272 59.5t-181 188.5t-66 310q0 294 185 438q137 106 341 106q65 0 130.5 -11.5 t172.5 -45.5zM306 1554l73 62l231 -262l233 262l67 -62l-257 -282h-95z" />
<glyph unicode="&#x111;" horiz-adv-x="1252" d="M672 1574h342l-2 -213h132v-89h-132l-9 -1182h177v-90h-285l7 204q-40 -76 -86.5 -123t-119 -75.5t-159.5 -28.5q-180 0 -300.5 133t-120.5 378q0 274 146.5 427.5t383.5 153.5q123 0 254 -42l5 245h-384v89h385l2 119h-236v94zM900 924q-121 51 -259 51 q-183 0 -296.5 -124t-113.5 -359q0 -205 91.5 -310t234.5 -105q121 0 201 65t111 162q31 98 31 268v352z" />
<glyph unicode="&#x11e;" horiz-adv-x="1479" d="M1292 1108h-101l-4 196q-135 46 -297 46q-213 0 -351.5 -70t-217.5 -218t-79 -344q0 -192 75.5 -341t220 -222t332.5 -73q144 0 281 35l4 390h-181v92h457v-92h-168l-4 -466q-96 -28 -159 -37q-132 -18 -258 -18q-231 0 -394.5 92.5t-245 254t-81.5 377.5 q0 338 200.5 538.5t553.5 200.5q118 0 227.5 -18.5t185.5 -50.5zM1047 1842l93 -34q-28 -97 -60 -152t-90.5 -88.5t-148.5 -33.5q-122 0 -199.5 65.5t-111.5 210.5l98 31q21 -85 47 -128t70 -65.5t96 -22.5q93 0 141 59q34 40 65 158z" />
<glyph unicode="&#x11f;" horiz-adv-x="1100" d="M1094 1043l-1 -95l-257 5q55 -55 80 -108q33 -73 33 -160q0 -92 -37.5 -168t-93 -124t-123.5 -70q-69 -22 -156 -24q-25 -1 -43 -3q-30 0 -83 -17t-78 -43t-25 -53q0 -26 21 -46q28 -26 105 -42q48 -10 256 -42q164 -25 218 -45q80 -29 123 -86t43 -135 q0 -132 -125 -233.5t-373 -101.5q-144 0 -263 36q-119 37 -174 104.5t-55 144.5q0 93 78 174t210 100q-90 23 -130.5 66.5t-40.5 89.5q0 53 44.5 99t141.5 64q-112 31 -174 99q-92 99 -92 248q0 112 51 205t146.5 142.5t212.5 49.5q83 0 173 -30l156 3q19 0 64 -1zM845 693 q0 35 -13 81q-18 61 -57.5 107.5t-103 72t-134.5 25.5q-137 0 -221.5 -82t-84.5 -207q0 -80 38 -150t112 -108.5t162 -38.5q136 0 219 83t83 217zM483 -17q-148 -40 -216.5 -95t-68.5 -136q0 -49 36 -94t106 -74q101 -42 241 -42q196 0 309 85q80 61 80 150q0 50 -28.5 86.5 t-99.5 59.5t-273 49zM761 1596l93 -34q-28 -97 -60 -152t-90.5 -88.5t-148.5 -33.5q-122 0 -199.5 65.5t-111.5 210.5l98 31q21 -85 47 -128t70 -65.5t96 -22.5q93 0 141 59q34 40 65 158z" />
<glyph unicode="&#x130;" horiz-adv-x="684" d="M576 1431l-1 -90h-170l-9 -1251h180l-1 -90h-459l1 90h164l8 1251h-180l1 90h466zM421 1654q0 -46 -24.5 -72t-63.5 -26q-42 0 -66.5 24t-24.5 66q0 44 26 71.5t66 27.5q38 0 62.5 -25t24.5 -66z" />
<glyph unicode="&#x131;" horiz-adv-x="607" d="M372 1052l-13 -962h180v-90h-469v90h179l14 872h-215v90h324z" />
<glyph unicode="&#x141;" d="M390 717l390 296v-106l-390 -297l-4 -520h564l12 218h98l-11 -308h-948l1 90h169l3 432l-172 -130v105l173 132l5 712h-179l1 90h462l-1 -90h-168z" />
<glyph unicode="&#x142;" horiz-adv-x="647" d="M48 1481v93h336l-3 -646l172 129v-106l-173 -129l-4 -732h180v-90h-457v90h167l4 650l-175 -131v106l176 131l4 635h-227z" />
<glyph unicode="&#x152;" horiz-adv-x="2087" d="M1950 1151l-93 -1l-3 191h-588l-2 -581h526v-92h-525l-3 -578h601l11 213h96l-12 -303h-719q-74 0 -169 -9.5t-166 -9.5q-172 0 -294 34q-161 45 -259.5 134.5t-158.5 229t-60 327.5q0 168 50 296.5t128.5 215t169.5 136t195 71.5q105 22 231 22q66 0 194 -9 q91 -7 150 -7h697zM1156 1336q-144 17 -217 17q-248 0 -388.5 -76.5t-220.5 -222t-80 -343.5q0 -188 68.5 -333t216 -225t374.5 -80q87 0 238 17z" />
<glyph unicode="&#x153;" horiz-adv-x="1858" d="M1699 150v-101q-47 -25 -133 -46t-185 -21q-120 0 -196 23.5t-127.5 68t-77.5 91.5q-17 30 -30 84q-39 -135 -132.5 -202.5t-252.5 -67.5q-161 0 -263.5 70t-153 191.5t-50.5 285.5q0 265 133 409t343 144q152 0 249 -63t143 -180q31 105 131.5 174t243.5 69 q114 0 201.5 -49.5t134 -125.5t62.5 -164.5t16 -216.5h-745q-1 -65 -1 -97q0 -105 26 -165q39 -84 121.5 -134.5t207.5 -50.5q173 0 335 74zM1649 619q-1 179 -89 273t-227 94q-98 0 -174 -43t-111.5 -123.5t-36.5 -200.5h638zM902 552q1 83 1 92q0 81 -11 122 q-18 67 -62.5 117.5t-108 75t-138.5 24.5q-167 0 -271 -116.5t-104 -343.5q0 -222 99.5 -334.5t259.5 -112.5q88 0 151.5 28.5t106.5 83t60 120t17 244.5z" />
<glyph unicode="&#x15e;" horiz-adv-x="1176" d="M149 323h107l1 -204q124 -58 304 -58q120 0 209.5 39t132 111t42.5 160q0 63 -20.5 108.5t-59 77.5t-118.5 65q-33 13 -155 51q-171 54 -224 77q-75 33 -119 77.5t-66.5 104t-22.5 131.5q0 169 125.5 279t372.5 110q108 0 209 -19q63 -12 136 -40l3 -264h-98l-4 189 q-116 38 -253 38q-126 0 -212 -38.5t-123 -102.5t-37 -143q0 -83 37.5 -134t124.5 -91q41 -19 242 -79q150 -46 225 -92q76 -46 115.5 -119.5t39.5 -171.5q0 -102 -40.5 -180t-104.5 -128t-140.5 -75t-179.5 -29v-105q88 0 133.5 -39.5t45.5 -101.5q0 -73 -55 -119.5 t-172 -46.5q-97 0 -176 32l12 81q80 -31 164 -31q66 0 92.5 21t26.5 55t-28 54.5t-123 23.5v175q-111 4 -194 19.5t-172 48.5z" />
<glyph unicode="&#x15f;" horiz-adv-x="985" d="M492 -27v-105q88 0 133 -39.5t45 -101.5q0 -73 -54.5 -119.5t-171.5 -46.5q-97 0 -177 32l13 81q80 -31 164 -31q65 0 91.5 21t26.5 55t-27.5 54.5t-122.5 23.5v178q-86 6 -155 22t-140 45l-7 255h100l7 -180q64 -28 120.5 -40t129.5 -12q117 0 185 43q96 60 96 174 q0 49 -17 80.5t-48.5 54t-85.5 38.5q-30 9 -143 32q-179 36 -247 87q-96 72 -96 200q0 118 74 200q96 106 298 106q76 0 159.5 -17t148.5 -48l6 -240h-97l-10 169q-46 22 -80 30q-64 15 -131 15q-129 0 -194 -58t-65 -147q0 -56 29 -94.5t90 -61.5q47 -19 161 -42t161 -39 q70 -25 109 -57.5t62.5 -80.5t23.5 -119q0 -157 -114 -244q-87 -66 -250 -73z" />
<glyph unicode="&#x160;" horiz-adv-x="1176" d="M1006 1129h-98l-4 189q-116 38 -253 38q-126 0 -212 -38.5t-123 -102.5t-37 -143q0 -83 37.5 -134t124.5 -91q41 -19 242 -79q150 -46 225 -92q76 -46 115.5 -119.5t39.5 -171.5q0 -106 -43 -186t-112 -130.5t-152 -73.5t-203 -23q-119 0 -214 17t-187 51l-3 283h107 l1 -204q124 -58 304 -58q120 0 209.5 39t132 111t42.5 160q0 63 -20.5 108.5t-59 77.5t-118.5 65q-33 13 -155 51q-171 54 -224 77q-75 33 -119 77.5t-66.5 104t-22.5 131.5q0 169 125.5 279t372.5 110q108 0 209 -19q63 -12 136 -40zM288 1797l73 62l231 -262l233 262 l67 -62l-257 -282h-95z" />
<glyph unicode="&#x161;" horiz-adv-x="985" d="M797 775h-97l-10 169q-46 22 -80 30q-64 15 -131 15q-129 0 -194 -58t-65 -147q0 -56 29 -94.5t90 -61.5q47 -19 161 -42t161 -39q70 -25 109 -57.5t62.5 -80.5t23.5 -119q0 -142 -97 -229.5t-291 -87.5q-182 0 -351 69l-7 255h100l7 -180q64 -28 120.5 -40t129.5 -12 q117 0 185 43q96 60 96 174q0 49 -17 80.5t-48.5 54t-85.5 38.5q-30 9 -143 32q-179 36 -247 87q-96 72 -96 200q0 118 74 200q96 106 298 106q76 0 159.5 -17t148.5 -48zM195 1554l73 62l231 -262l233 262l67 -62l-257 -282h-95z" />
<glyph unicode="&#x178;" horiz-adv-x="1441" d="M1431 1431v-90h-137l-500 -701l-4 -550h178l-1 -90h-459v90h167l4 548l-512 703h-158l1 90h445l-1 -90h-146l433 -602l431 602h-183v90h442zM579 1657q0 -47 -26.5 -74t-65.5 -27q-37 0 -62 25.5t-25 67.5q0 44 26 71t64 27q39 0 64 -25.5t25 -64.5zM1016 1655 q0 -46 -24.5 -72t-64.5 -26q-42 0 -66 24t-24 66q0 44 26 71.5t66 27.5q38 0 62.5 -25t24.5 -66z" />
<glyph unicode="&#x17d;" horiz-adv-x="1327" d="M1208 1431v-90l-934 -1250h819l10 227h104l-11 -318h-1067v82l943 1258h-798l-14 -220h-105l16 311h1037zM366 1798l73 62l231 -262l233 262l67 -62l-257 -282h-95z" />
<glyph unicode="&#x17e;" horiz-adv-x="1062" d="M956 1052v-90l-697 -872h588l13 193h101l-16 -283h-831v83l703 880l-568 -1l-10 -185h-96l10 275h803zM232 1554l73 62l231 -262l233 262l67 -62l-257 -282h-95z" />
<glyph unicode="&#x192;" d="M881 842v-91h-321l-27 -354q-1 -7 -21 -230q-18 -191 -50 -288q-33 -98 -85.5 -157.5t-123 -91t-155.5 -31.5q-83 0 -139 29l12 96q47 -30 121 -30q65 0 114 21.5t84.5 60.5t59 97.5t33.5 118.5q19 114 30 250l40 509h-233v91h240q14 205 35 296q28 120 85.5 187.5 t142 100t192.5 32.5q74 0 152 -18l-6 -93q-68 17 -140 17q-97 0 -166 -30.5t-107.5 -84.5t-58.5 -146q-12 -58 -29 -261h321z" />
<glyph unicode="&#x2c6;" horiz-adv-x="569" d="M589 1311l-72 -61l-231 262l-234 -262l-67 61l257 282h96z" />
<glyph unicode="&#x2c7;" horiz-adv-x="569" d="M-15 1554l73 62l231 -262l233 262l67 -62l-257 -282h-95z" />
<glyph unicode="&#x2d8;" horiz-adv-x="569" d="M496 1599l93 -34q-28 -97 -60 -152t-90.5 -88.5t-148.5 -33.5q-122 0 -199.5 65.5t-111.5 210.5l98 31q21 -85 47 -128t70 -65.5t96 -22.5q93 0 141 59q34 40 65 158z" />
<glyph unicode="&#x2d9;" horiz-adv-x="569" d="M373 1414q0 -46 -24.5 -72t-63.5 -26q-42 0 -66.5 24t-24.5 66q0 44 26 71.5t66 27.5q38 0 62.5 -25t24.5 -66z" />
<glyph unicode="&#x2da;" horiz-adv-x="569" d="M490 1414q0 -88 -52.5 -141.5t-131.5 -53.5q-82 0 -134.5 52t-52.5 133q0 90 58.5 139.5t131.5 49.5q79 0 130 -50.5t51 -128.5zM404 1421q0 30 -23.5 61.5t-71.5 31.5q-47 0 -76 -30t-29 -83q0 -49 27.5 -77.5t70.5 -28.5q48 0 75 29.5t27 96.5z" />
<glyph unicode="&#x2db;" horiz-adv-x="571" d="M512 -334v-80q-61 -24 -119 -24q-85 0 -135 47.5t-50 116.5q0 137 177 274h82q-86 -77 -118 -132t-32 -110q0 -46 30.5 -77t76.5 -31q39 0 88 16z" />
<glyph unicode="&#x2dc;" horiz-adv-x="569" d="M573 1511l74 -56q-87 -133 -208 -133q-36 0 -65 10q-30 11 -83 44t-73 41q-21 8 -40 8q-35 0 -65.5 -20.5t-68.5 -75.5l-83 50q78 144 214 144q38 0 69 -10q32 -11 75 -39q58 -37 79 -45q21 -9 43 -9q32 0 56.5 15t75.5 76z" />
<glyph unicode="&#x2dd;" horiz-adv-x="569" d="M830 1549l-362 -305l-73 55l362 314zM474 1549l-362 -305l-73 55l362 314z" />
<glyph unicode="&#x3c0;" d="M257 0h-110v962h-141l-1 90h1075v-90h-153v-730q0 -91 9 -113q16 -33 67 -33q41 0 87 20v-86q-42 -19 -66.5 -25t-53.5 -6q-55 0 -93 24t-49 62q-11 39 -11 146v741h-560v-962z" />
<glyph unicode="&#x2013;" horiz-adv-x="1024" d="M1024 588v-98h-1024v98h1024z" />
<glyph unicode="&#x2014;" horiz-adv-x="2048" d="M1782 588v-98h-1517v98h1517z" />
<glyph unicode="&#x2018;" horiz-adv-x="569" d="M376 1607l51 -49q-99 -101 -99 -198q0 -52 34.5 -88.5t39.5 -47.5q8 -14 8 -32q0 -36 -25 -60t-64 -24q-47 0 -76 37q-39 48 -39 129q0 52 24.5 117.5t61.5 119.5q28 41 84 96z" />
<glyph unicode="&#x2019;" horiz-adv-x="569" d="M182 1108l-51 50q99 101 99 198q0 52 -34.5 88.5t-40.5 46.5q-7 15 -7 33q0 36 24.5 59.5t64.5 23.5q46 0 76 -36q39 -48 39 -129q0 -52 -24.5 -117.5t-62.5 -119.5q-28 -41 -83 -97z" />
<glyph unicode="&#x201a;" horiz-adv-x="569" d="M191 -330l-51 50q99 101 99 197q0 53 -34.5 89.5t-40.5 46.5q-7 14 -7 33q0 35 24.5 59t64.5 24q46 0 76 -36q39 -48 39 -130q0 -52 -24.5 -117t-62.5 -120q-28 -41 -83 -96z" />
<glyph unicode="&#x201c;" horiz-adv-x="796" d="M618 1607l51 -49q-99 -101 -99 -198q0 -52 34.5 -88.5t40.5 -47.5q7 -14 7 -32q0 -36 -24.5 -60t-64.5 -24q-46 0 -76 37q-39 48 -39 129q0 52 24.5 117.5t62.5 119.5q28 41 83 96zM292 1607l51 -49q-99 -101 -99 -198q0 -52 34.5 -88.5t39.5 -47.5q8 -14 8 -32 q0 -36 -25 -60t-64 -24q-47 0 -76 37q-39 48 -39 129q0 52 24.5 117.5t61.5 119.5q28 41 84 96z" />
<glyph unicode="&#x201d;" horiz-adv-x="796" d="M191 1108l-51 50q99 101 99 198q0 52 -34.5 88.5t-40.5 46.5q-7 15 -7 33q0 36 24.5 59.5t64.5 23.5q46 0 76 -36q39 -48 39 -129q0 -52 -24.5 -117.5t-62.5 -119.5q-28 -41 -83 -97zM517 1108l-51 50q99 101 99 198q0 52 -34.5 88.5t-39.5 46.5q-8 15 -8 33 q0 36 25 59.5t64 23.5q47 0 76 -36q39 -48 39 -129q0 -52 -24.5 -117.5t-61.5 -119.5q-28 -41 -84 -97z" />
<glyph unicode="&#x201e;" horiz-adv-x="796" d="M191 -330l-51 50q99 101 99 197q0 53 -34.5 89.5t-40.5 46.5q-7 14 -7 33q0 35 24.5 59t64.5 24q46 0 76 -36q39 -48 39 -130q0 -52 -24.5 -117t-62.5 -120q-28 -41 -83 -96zM517 -330l-51 50q99 101 99 197q0 53 -34.5 89.5t-39.5 46.5q-8 14 -8 33q0 35 25 59t64 24 q47 0 76 -36q39 -48 39 -130q0 -52 -24.5 -117t-61.5 -120q-28 -41 -84 -96z" />
<glyph unicode="&#x2020;" d="M625 1431v-472h408v-91h-408l-13 -1262h-111l15 1262h-409v91h409v472h109z" />
<glyph unicode="&#x2021;" d="M635 1431l-4 -469h413v-93h-409l-9 -674h405v-90h-405l-8 -498h-109l6 498h-406v90h406l9 674h-408v93h408l8 469h103z" />
<glyph unicode="&#x2022;" horiz-adv-x="1024" d="M512 1074q90 0 176 -46.5t134 -132.5t48 -179t-47.5 -178t-132.5 -132.5t-178 -47.5t-178 47.5t-132.5 132.5t-47.5 178t48 179t134 132.5t176 46.5z" />
<glyph unicode="&#x2026;" horiz-adv-x="2048" d="M342 166q40 0 68 -28t28 -67q0 -40 -28.5 -68t-67.5 -28q-40 0 -68 28t-28 68q0 39 28 67t68 28zM1025 166q39 0 67 -28t28 -67q0 -40 -28 -68t-68 -28q-39 0 -67 28t-28 68q0 39 28 67t68 28zM1707 166q40 0 68 -28t28 -67q0 -40 -28 -68t-68 -28q-39 0 -67.5 28 t-28.5 68q0 39 28 67t68 28z" />
<glyph unicode="&#x2030;" horiz-adv-x="2389" d="M1376 1486l-948 -1608l-81 52l953 1608zM734 1141q0 -160 -88.5 -252.5t-225.5 -92.5q-134 0 -220.5 88.5t-86.5 236.5q0 145 90.5 237t227.5 92q90 0 161 -44t106.5 -118.5t35.5 -146.5zM631 1141q-1 56 -26.5 110.5t-73 84t-102.5 29.5q-92 0 -154 -65.5t-62 -177.5 q0 -106 61 -171.5t146 -65.5q67 0 115 34t72.5 92t23.5 106v24zM2354 317q0 -154 -88 -247t-222 -93q-135 0 -221 87.5t-86 229.5q0 153 89 244.5t224 91.5q87 0 158.5 -42t108.5 -116.5t37 -154.5zM2251 317q0 102 -58 165t-144 63q-88 0 -151 -67t-63 -175 q0 -107 60.5 -172t149.5 -65q87 0 147 64t60 167zM1635 318q0 -154 -89 -248t-223 -94q-138 0 -224 88.5t-86 233.5q0 148 90 240t226 92q91 0 162.5 -44t107.5 -119t36 -149zM1530 318q-1 103 -60 165.5t-146 62.5t-149.5 -67t-62.5 -177q0 -105 61 -170t150 -65 q88 0 148 64t59 166v21z" />
<glyph unicode="&#x2039;" horiz-adv-x="607" d="M463 808l-251 -270l241 -275l-74 -63l-263 291v86l275 296z" />
<glyph unicode="&#x203a;" horiz-adv-x="607" d="M232 871l262 -297v-84l-276 -296l-72 62l255 271l-241 279z" />
<glyph unicode="&#x20a3;" d="M1023 1138h-93l-7 202h-530l-4 -588h543l-1 -94h-543l-4 -568h193v-90h-474v90h166l9 1250h-185l1 88h931z" />
<glyph unicode="&#x2122;" horiz-adv-x="2086" d="M1601 1431v-60h-74l4 -596h66l-1 -59h-207v59h72l7 562l-233 -621h-48l-229 610v-551h78v-59h-217v59h66l11 596h-73l1 60h165l224 -622l223 622h165zM683 1271h-63l1 100h-195l-4 -596h85l-1 -59h-225v59h73l4 596h-195l-1 -100h-62l1 160h583z" />
<glyph unicode="&#x2126;" horiz-adv-x="1517" d="M1394 98v-98h-501l2 336q78 13 129 35q73 32 132 92t96 155.5t37 212.5q0 167 -79 282t-204.5 173t-252.5 58t-250.5 -58t-206.5 -175.5t-83 -286.5q0 -91 25 -173t67 -141t94.5 -97t104.5 -57q39 -14 98 -20l-3 -336h-502l1 98h411l1 159q-180 47 -293.5 201t-113.5 363 q0 171 85 315.5t242 227t327 82.5q173 0 325.5 -83.5t234.5 -223.5t82 -305q0 -200 -107.5 -360.5t-305.5 -216.5l-1 -159h409z" />
<glyph unicode="&#x2202;" horiz-adv-x="986" d="M193 1257l-60 75q124 114 282 114q114 0 215 -60t170 -181q47 -81 74 -202q27 -122 27 -273q0 -155 -26 -301t-86 -246.5t-144.5 -153t-189.5 -52.5q-163 0 -280 126.5t-117 329.5q0 132 51 231t144 150t193 51q95 0 188 -47.5t162 -139.5q2 49 2 75q0 165 -45 310 q-26 84 -71 146.5t-112 101t-151 38.5q-60 0 -109.5 -20t-116.5 -72zM784 565q-70 97 -161 149t-170 52q-72 0 -142.5 -39.5t-109 -115.5t-38.5 -179q0 -105 41 -190t112 -129t139 -44t141 46t123 157q51 112 65 293z" />
<glyph unicode="&#x2206;" horiz-adv-x="1365" d="M617 1431h129l590 -1431h-1302zM191 106h980l-492 1220z" />
<glyph unicode="&#x220f;" horiz-adv-x="1441" d="M1292 1609v-2048h-111v1943h-921v-1943h-111v2048h1143z" />
<glyph unicode="&#x2211;" horiz-adv-x="1214" d="M1136 1609v-105h-915l651 -914l-689 -924h978v-105h-1108v97l686 932l-657 923v96h1054z" />
<glyph unicode="&#x2212;" horiz-adv-x="1214" d="M98 444v98h1018v-98h-1018z" />
<glyph unicode="&#x2215;" horiz-adv-x="341" d="M683 1485l-950 -1605l-80 52l949 1606z" />
<glyph unicode="&#x2219;" horiz-adv-x="569" d="M380 595q0 -52 -26 -78.5t-70 -26.5t-69 26t-25 75q0 44 26.5 71.5t68.5 27.5q44 0 69.5 -25.5t25.5 -69.5z" />
<glyph unicode="&#x221a;" horiz-adv-x="986" d="M1003 1609l-429 -2048h-114l-343 710l-92 -45l-40 82l181 88l339 -710l398 1923h100z" />
<glyph unicode="&#x221e;" horiz-adv-x="1479" d="M741 565l114 104q49 43 93 71q45 29 87 41.5t86 12.5q119 0 197.5 -79t78.5 -204q0 -129 -76.5 -207.5t-194.5 -78.5q-79 0 -161 41q-83 42 -224 175l-106 -91q-48 -40 -99 -71q-52 -31 -94 -42.5t-89 -11.5q-117 0 -194 78t-77 201q0 127 77.5 207.5t189.5 80.5 q55 0 111 -21.5t117 -65.5q34 -26 164 -140zM809 503q144 -123 203 -151q59 -29 119 -29q73 0 120.5 49t47.5 132q0 90 -48.5 141t-126.5 51q-55 0 -112 -30q-57 -31 -203 -163zM672 504q-13 10 -45 37q-111 93 -179 127q-51 26 -100 26q-70 0 -119 -52t-49 -137 q0 -84 48 -133t127 -49q43 0 88.5 18t111.5 66q67 49 117 97z" />
<glyph unicode="&#x222b;" d="M582 1122v-956q0 -266 -9 -330q-12 -92 -47.5 -154t-79.5 -91.5t-103 -29.5q-54 0 -84 27t-30 65q0 28 19.5 47t47.5 19q25 0 42.5 -13.5t29.5 -47.5q6 -15 10 -18.5t11 -3.5q10 0 19 7q23 20 38.5 74t20.5 167t5 136v1014q0 296 12 360q19 106 79.5 160.5t139.5 54.5 q62 0 93 -25.5t31 -64.5q0 -28 -18.5 -46.5t-47.5 -18.5q-24 0 -43 14t-27 40q-6 18 -12 23.5t-15 5.5q-25 0 -49 -43q-34 -64 -34 -279z" />
<glyph unicode="&#x2248;" horiz-adv-x="1214" d="M1142 799q-14 -130 -81.5 -197t-159.5 -67q-45 0 -100 13q-75 18 -290 92q-96 33 -128 40q-33 7 -62 7q-62 0 -110 -45t-60 -125h-78q14 88 33 129q26 57 81.5 98t128.5 41q47 0 89 -10t280 -89q121 -39 152 -46t60 -7q68 0 117 50q37 38 53 116h75zM1142 469 q-14 -130 -81.5 -197t-159.5 -67q-45 0 -100 13q-75 18 -290 92q-96 33 -128 40q-33 7 -62 7q-62 0 -110 -45t-60 -125h-78q14 88 33 129q26 57 81.5 98t128.5 41q47 0 89 -10t280 -88q121 -40 152 -47t60 -7q68 0 117 50q37 38 53 116h75z" />
<glyph unicode="&#x2260;" horiz-adv-x="1214" d="M471 355l146 276h-519v98h574l158 297l85 -45l-135 -252h336v-98h-388l-148 -276h536v-98h-589l-155 -289l-85 46l131 243h-320v98h373z" />
<glyph unicode="&#x2264;" horiz-adv-x="1214" d="M98 533v111l1018 394v-110l-882 -340l882 -340v-110zM98 47h1018v-99h-1018v99z" />
<glyph unicode="&#x2265;" horiz-adv-x="1214" d="M1116 533l-1018 -395v110l881 340l-881 340v110l1018 -394v-111zM1116 47v-99h-1018v99h1018z" />
<glyph unicode="&#x25ca;" horiz-adv-x="1214" d="M660 1512l346 -801l-346 -800h-109l-342 800l342 801h109zM606 1397l-287 -686l287 -685l290 685z" />
<glyph unicode="&#x25fc;" horiz-adv-x="1050" d="M0 1050h1050v-1050h-1050v1050z" />
<glyph unicode="&#xfb01;" horiz-adv-x="1252" d="M1016 1052l-4 -962h184v-90h-455v90h164l5 872h-521l-8 -872h190v-90h-471v90h170l12 872h-221v90h221v74q0 173 42.5 265.5t145 147t259.5 54.5q137 0 230 -35v-93q-120 36 -223 36q-98 0 -171 -27.5t-110.5 -73t-51.5 -101.5q-14 -57 -14 -153v-94h627z" />
<glyph unicode="&#xfb02;" horiz-adv-x="1289" d="M706 1052v-90h-314l-7 -872h188v-90h-471v90h177l6 872h-222v90h222v77q0 71 11 147q12 76 44.5 132t81 94t121 59t169.5 21q41 0 93 -4q53 -5 77 -5l172 1l-12 -1484h179v-90h-450v90h166l10 1388q-106 16 -214 16q-93 0 -152.5 -18.5t-97 -50t-59.5 -80.5t-27 -129 t-5 -117v-47h314z" />
<glyph horiz-adv-x="1517" d="M247 0v1280h1024v-1280h-1024zM279 32h960v1216h-960v-1216z" />
</font>
</defs>
</svg>
